<svg width="12" height="11" viewBox="0 0 12 11" fill="none" xmlns="http://www.w3.org/2000/svg">
<path d="M10.7879 3.23635L6.29628 5.65218C6.11545 5.74968 5.88795 5.74968 5.70128 5.65218L1.20961 3.23635C0.888781 3.06302 0.807114 2.65677 1.05211 2.40218C1.22128 2.22343 1.41378 2.07718 1.61795 1.97427L4.77961 0.349268C5.45628 -0.00281574 6.55295 -0.00281574 7.22961 0.349268L10.3913 1.97427C10.5954 2.07718 10.7879 2.22885 10.9571 2.40218C11.1904 2.65677 11.1088 3.06302 10.7879 3.23635ZM5.66745 6.6586V10.3528C5.66745 10.7644 5.21828 11.0353 4.82161 10.8565C3.61995 10.3094 1.59578 9.28568 1.59578 9.28568C0.884114 8.91193 0.300781 7.96943 0.300781 7.19485V4.39985C0.300781 3.97193 0.784948 3.7011 1.18161 3.91235L5.37578 6.1711C5.55078 6.27402 5.66745 6.45818 5.66745 6.6586ZM6.33245 6.6586V10.3528C6.33245 10.7644 6.78161 11.0353 7.17828 10.8565C8.37995 10.3094 10.4041 9.28568 10.4041 9.28568C11.1158 8.91193 11.6991 7.96943 11.6991 7.19485V4.39985C11.6991 3.97193 11.2149 3.7011 10.8183 3.91235L6.62411 6.1711C6.44911 6.27402 6.33245 6.45818 6.33245 6.6586Z" fill="#F6BD75"/>
</svg>
