<svg width="11" height="13" viewBox="0 0 11 13" fill="none" xmlns="http://www.w3.org/2000/svg">
<path d="M6.5152 1.16113H4.38599V2.30909H6.5152V1.16113Z" fill="#5C54A7"/>
<path d="M4.27593 0H3.78662V1.33571H4.27593V0Z" fill="black"/>
<path d="M4.7625 0H4.27319V1.33571H4.7625V0Z" fill="white"/>
<path d="M5.25687 0H4.76514V1.33571H5.25687V0Z" fill="#DAD6F7"/>
<path d="M5.74077 0H5.25146V1.33571H5.74077V0Z" fill="#DAD6F7"/>
<path d="M6.23245 0H5.74072V1.33571H6.23245V0Z" fill="black"/>
<path d="M6.72171 0H6.22998V1.33571H6.72171V0Z" fill="black"/>
<path d="M7.22417 0H6.73486V1.33571H7.22417V0Z" fill="black"/>
<path d="M10.4721 2.8954L9.31592 4.02979L9.79379 4.49867L10.9499 3.36428L10.4721 2.8954Z" fill="#DAD6F7"/>
<path d="M9.99111 2.42982L8.83496 3.56421L9.31284 4.03309L10.469 2.8987L9.99111 2.42982Z" fill="#DAD6F7"/>
<path d="M9.38545 3.77246L1.60742 11.4065C2.60299 12.3833 3.97886 12.987 5.49765 12.987C8.53522 12.987 10.9987 10.5699 10.9987 7.58946C10.9963 6.09926 10.381 4.74929 9.38545 3.77246Z" fill="black"/>
<path d="M5.50106 2.19336C2.46349 2.19336 0 4.61048 0 7.59088C0 9.08108 0.615266 10.4311 1.61083 11.4079L9.39129 3.77625C8.39572 2.79704 7.01985 2.19336 5.50106 2.19336Z" fill="#5C54A7"/>
<path d="M5.50566 12.0547C8.01517 12.0547 10.0572 10.0512 10.0572 7.58889C10.0572 6.35776 9.54607 5.2407 8.72249 4.43262L2.29126 10.7452C3.11484 11.5533 4.25091 12.0547 5.50566 12.0547Z" fill="white"/>
<path d="M0.94751 7.59133C0.94751 8.82247 1.45862 9.93953 2.2822 10.7476L8.71585 4.43506C7.89227 3.62697 6.75378 3.12549 5.49903 3.12549C2.98709 3.12549 0.94751 5.12906 0.94751 7.59133Z" fill="white"/>
<path d="M5.44568 4.41456C5.35364 4.41456 5.27612 4.34088 5.27612 4.24819V2.48229C5.27612 2.3896 5.35121 2.31592 5.44568 2.31592C5.54015 2.31592 5.61525 2.3896 5.61525 2.48229V4.24819C5.61525 4.3385 5.54015 4.41456 5.44568 4.41456Z" fill="black"/>
<path d="M10.3717 7.47547H8.57191C8.47744 7.47547 8.40234 7.4016 8.40234 7.30866C8.40234 7.2181 8.47744 7.14185 8.57191 7.14185H10.3717C10.4662 7.14185 10.5412 7.21572 10.5412 7.30866C10.5412 7.4016 10.4662 7.47547 10.3717 7.47547Z" fill="black"/>
<path d="M5.44568 12.5887C5.35121 12.5887 5.27612 12.5151 5.27612 12.4224V10.5709C5.27612 10.4806 5.35121 10.4045 5.44568 10.4045C5.53773 10.4045 5.61525 10.4782 5.61525 10.5709V12.4224C5.61525 12.5151 5.53773 12.5887 5.44568 12.5887Z" fill="black"/>
<path d="M2.31577 7.47547H0.515997C0.421527 7.47547 0.346436 7.4016 0.346436 7.30866C0.346436 7.2181 0.421527 7.14185 0.515997 7.14185H2.31577C2.40782 7.14185 2.48533 7.21572 2.48533 7.30866C2.48533 7.4016 2.40782 7.47547 2.31577 7.47547Z" fill="black"/>
<path d="M8.11772 5.02434C7.97481 4.88411 5.24244 7.33926 5.24244 7.33926C5.09952 7.47949 5.09952 7.70527 5.24244 7.8455L8.11772 5.02434Z" fill="#1A7266"/>
<path d="M5.24536 7.8424C5.31561 7.91133 5.41008 7.94698 5.50213 7.94698C5.5966 7.94698 5.68864 7.91133 5.76131 7.8424C5.76131 7.8424 8.26114 5.16147 8.12064 5.02124L5.24536 7.8424Z" fill="#E50043"/>
<path d="M5.27588 7.82805C5.33644 7.88762 5.42122 7.92575 5.51569 7.92575C5.70221 7.92575 5.85481 7.77562 5.85481 7.59212C5.85481 7.49918 5.81605 7.41578 5.7555 7.3562L5.27588 7.82805Z" fill="#DAD6F7"/>
<path d="M5.50294 7.25684C5.31642 7.25684 5.16382 7.40697 5.16382 7.59046C5.16382 7.6834 5.20258 7.76681 5.26313 7.82639L5.74275 7.35454C5.68219 7.29496 5.59741 7.25684 5.50294 7.25684Z" fill="#DAD6F7"/>
<path d="M9.05605 4.10767L8.72177 4.43803C9.54535 5.24611 10.0565 6.36317 10.0565 7.59431C10.0565 10.0566 8.01445 12.0602 5.50494 12.0602C4.25019 12.0602 3.1117 11.5587 2.28812 10.7506L1.95142 11.0809C2.8622 11.9746 4.11696 12.526 5.50252 12.526C8.27364 12.526 10.5288 10.3133 10.5288 7.59431C10.5288 6.23245 9.96441 4.99893 9.05605 4.10767Z" fill="#DAD6F7"/>
<path d="M0.958415 7.58598C0.958415 5.1237 3.00042 3.12013 5.50993 3.12013C6.76469 3.12013 7.90317 3.62162 8.72676 4.4297L9.06104 4.09934C8.15025 3.20569 6.89549 2.6543 5.50993 2.6543C2.73881 2.6543 0.483643 4.86702 0.483643 7.58598C0.483643 8.94546 1.04804 10.179 1.95641 11.0702L2.29311 10.7423C1.4671 9.93417 0.958415 8.81712 0.958415 7.58598Z" fill="#DAD6F7"/>
</svg>
