<svg width="17" height="17" viewBox="0 0 17 17" fill="none" xmlns="http://www.w3.org/2000/svg">
<path d="M11.6826 7.64042C13.1242 7.64042 14.2927 6.47192 14.2927 5.03029C14.2927 3.58946 13.1242 2.42017 11.6826 2.42017" stroke="#6FCB73" stroke-width="2" stroke-linecap="round" stroke-linejoin="round"/>
<path d="M12.8828 10.4771C13.3135 10.5063 13.741 10.5681 14.1629 10.6615C14.748 10.7779 15.4526 11.0178 15.7027 11.5426C15.8626 11.8791 15.8626 12.271 15.7027 12.6074C15.4534 13.1323 14.748 13.3722 14.1629 13.4925" stroke="#6FCB73" stroke-width="2" stroke-linecap="round" stroke-linejoin="round"/>
<path fill-rule="evenodd" clip-rule="evenodd" d="M6.59304 11.0391C9.51429 11.0391 12.0096 11.4816 12.0096 13.2494C12.0096 15.018 9.53012 15.4756 6.59304 15.4756C3.67179 15.4756 1.17725 15.0338 1.17725 13.2652C1.17725 11.4966 3.65595 11.0391 6.59304 11.0391Z" stroke="#6FCB73" stroke-width="2" stroke-linecap="round" stroke-linejoin="round"/>
<path fill-rule="evenodd" clip-rule="evenodd" d="M6.59323 8.51561C4.66631 8.51561 3.12256 6.97107 3.12256 5.04415C3.12256 3.11803 4.66631 1.57349 6.59323 1.57349C8.52014 1.57349 10.0647 3.11803 10.0647 5.04415C10.0647 6.97107 8.52014 8.51561 6.59323 8.51561Z" stroke="#6FCB73" stroke-width="2" stroke-linecap="round" stroke-linejoin="round"/>
</svg>
