<svg width="16" height="14" viewBox="0 0 16 14" fill="none" xmlns="http://www.w3.org/2000/svg">
<path d="M0.789062 11.6349L0.903158 11.5339L1.0686 10.967L0.928829 11.301L0.789062 11.6349Z" fill="#FCFDFA"/>
<path d="M7.14911 9.6865C7.0778 9.78472 6.91806 9.97554 6.85816 10.0766C6.79826 10.1804 6.70413 10.3965 6.67276 10.5059C6.63568 10.6238 6.60145 10.8595 6.58433 10.9773C6.56722 11.1064 6.55011 11.4909 6.55011 11.4909L6.51873 11.9314L6.48735 12.372L6.45312 12.8855L6.96085 13.009L6.98652 12.4955L7.00934 12.0549L7.03216 11.6143C7.03216 11.6143 7.04072 11.2299 7.05783 11.1008C7.0778 10.9493 7.13199 10.6406 7.19474 10.4947C7.25179 10.36 7.42008 10.1018 7.52277 9.98395C7.59693 9.89977 7.87076 9.6865 7.87076 9.6865L7.87932 9.17017C7.87932 9.17017 7.57696 9.33012 7.48854 9.39466C7.39156 9.4592 7.14911 9.6865 7.14911 9.6865Z" fill="#FCFDFA"/>
<path d="M7.26637 11.2339L7.25781 11.4499L7.83685 11.5987L7.8454 11.043L7.85681 10.5548L7.86537 9.99634L7.56016 10.3583L7.35479 10.7765L7.26637 11.2339Z" fill="#C6C369"/>
<path d="M7.23599 11.7698L7.21888 12.1879L7.20461 12.5499L7.1875 12.968L7.80076 13.1167L7.80932 12.6986L7.81502 12.3366L7.82358 11.9213L7.23599 11.7698Z" fill="#DAD6F7"/>
<path d="M4.14646 11.5354L4.10938 11.7655L7.86881 13.4464V13.2163L4.14646 11.5354Z" fill="#9095A5"/>
<path d="M7.87543 5.77443V5.54151L5.33396 4.61548L5.29688 4.84558L7.87543 5.77443Z" fill="#9095A5"/>
<path d="M4.93449 7.04122L5.03148 6.45193L5.11419 5.94401L5.19406 5.4361L5.29104 4.84399L4.90312 4.97027L4.51234 5.09655L4.39825 5.66059L4.287 6.22743L4.08734 6.71009L3.71368 7.1675L3.2031 7.54633L2.61551 7.79608L1.93094 7.98409L1.79688 8.44711L2.48715 8.2619L3.07189 8.10195L3.64807 7.93919L4.30982 7.75399L4.62644 7.3976L4.93449 7.04122Z" fill="#DAD6F7"/>
<path d="M1.69573 8.78436L1.52459 9.37085L1.37911 9.87596L1.23364 10.3811L1.0625 10.9676L1.62727 10.454L2.11218 9.99943L2.55144 9.5757L2.97645 9.15196L3.42142 8.70017L3.91203 8.18384L3.32729 8.34379L2.81671 8.4841L2.30329 8.6216L1.69573 8.78436Z" fill="#DAD6F7"/>
<path d="M0.788343 11.636L0.4375 13.0138L4.14845 11.5378L4.19694 11.6332L4.29107 11.0411L4.37949 10.4939L4.46506 9.96633L4.55063 9.43877L4.63906 8.89156L4.73319 8.29946L4.83872 7.64282L4.34241 8.19283L3.87747 8.68952L3.4325 9.14973L2.99323 9.5903L2.53971 10.0309L2.0548 10.4911L1.5157 10.985L0.896733 11.535L0.788343 11.636Z" fill="#DAD6F7"/>
<path d="M7.87315 5.77092L7.4453 5.61938L4.78403 7.64263L4.67849 8.29927L4.58436 8.89137L4.49594 9.43858L4.41036 9.96333L4.32479 10.4909L4.23637 11.0381L4.14224 11.6302L4.09375 11.5348L7.87315 13.2157V5.77092Z" fill="#DAD6F7"/>
<path d="M6.98055 5.44732L6.51276 5.28456L6.11628 5.14425L5.7255 5.00395L5.28624 4.84399L5.18925 5.4361L5.10939 5.94401L5.02667 6.45193L4.92969 7.04122L5.40033 6.69045L5.80252 6.38739L6.17333 6.10116L6.55554 5.79528L6.98055 5.44732Z" fill="#DAD6F7"/>
<path d="M4.27794 6.22878L4.38918 5.66194L4.50328 5.0979L3.99841 5.25785L3.55914 5.39535L3.11417 5.53286L2.58933 5.69281L2.40963 6.31016L2.2556 6.84053L2.10157 7.37089L1.92188 7.98544L2.60645 7.79743L3.19404 7.54768L3.70461 7.16885L4.07827 6.71145L4.27794 6.22878Z" fill="#14AD98"/>
<path d="M4.30524 7.7561L3.64349 7.94131L3.06731 8.10407L2.48257 8.26402L1.79229 8.44923L1.69531 8.78597L2.30287 8.62321L2.8163 8.48571L3.32687 8.3454L3.91161 8.18545L4.30524 7.7561Z" fill="#FCFDFA"/>
<path d="M4.84375 7.64669L5.36574 7.27066L5.81926 6.94234L6.23001 6.63366L6.62934 6.32779L7.04579 5.99947L7.50217 5.62344L6.98874 5.44946L6.56374 5.79743L6.18152 6.1033L5.81071 6.38953L5.40852 6.69259L4.93788 7.04336L4.88939 7.34362L4.84375 7.64669Z" fill="#FCFDFA"/>
<path d="M4.31485 7.75403L3.92122 8.18337L3.43061 8.6997L2.98564 9.1515L2.56063 9.57523L2.12136 9.99896L1.63646 10.4536L1.07169 10.9671L0.90625 11.5339L1.52522 10.9839L2.06432 10.49L2.54922 10.0298L2.9999 9.58926L3.44202 9.14869L3.88414 8.68848L4.34907 8.19459L4.84539 7.64459L4.89103 7.34152L4.93952 7.04126L4.63146 7.39764L4.31485 7.75403Z" fill="#FCFDFA"/>
<path d="M1.64003 11.1896L1.50597 11.6919L1.39187 12.1297L1.25781 12.632L3.81069 11.4534L3.96757 10.6116L3.39425 10.7547L2.81521 10.9006L2.23047 11.0437L1.64003 11.1896Z" fill="#877FD3"/>
<path d="M2.8125 10.9019L3.39153 10.756L3.96486 10.6129L4.05043 10.1274L4.136 9.64478L3.5855 9.78789L3.02643 9.93381L2.92089 10.4165L2.8125 10.9019Z" fill="#877FD3"/>
<path d="M4.84154 9.68774L4.50781 11.6268L6.26203 12.2357L6.30196 11.725L6.34189 11.2367L6.38183 10.726L6.42746 10.1339L5.8684 9.97959L5.38635 9.84489L4.84154 9.68774Z" fill="#877FD3"/>
<path d="M6.88345 6.92212L6.34435 7.33462L5.86515 7.69101L5.37169 8.04739L4.78125 8.4599L5.14635 8.85557L5.47723 9.20073L5.87371 9.5992L6.44134 9.20353L6.91483 8.86398L7.37692 8.52724L7.86467 8.13158V7.96882L7.5338 7.60402L7.22574 7.28692L6.88345 6.92212Z" fill="#877FD3"/>
<path d="M0.433562 13.0143L2.59567 5.69305L3.1205 5.53309L3.56548 5.39559L4.00474 5.25809L4.50961 5.09814L4.90039 4.97186L5.28831 4.84558L5.32539 4.61548L2.39315 5.54432L0 13.4493L4.10743 11.7684L4.14451 11.5383L0.433562 13.0143Z" fill="#9095A5"/>
<path d="M15.1525 13.0143L15.0441 12.5794L14.9214 12.0939L14.7788 11.5355L14.8901 11.6365L14.7617 11.3026L14.6362 10.9686L14.4879 10.3821L14.3595 9.87704L14.234 9.37193L14.0857 8.78544L14.0001 8.4487L13.8832 7.98568L13.7291 7.37113L13.5951 6.84077L13.461 6.3104L13.3041 5.69305L12.785 5.53309L12.3457 5.39559L11.9093 5.25809L11.413 5.09814L11.0251 4.97186L10.6429 4.84558L10.6172 4.61548L13.5124 5.54432L15.606 13.4493L11.6469 11.7684L11.6184 11.5383L15.1525 13.0143Z" fill="#9095A5"/>
<path d="M11.6152 11.5354L11.6437 11.7655L7.86719 13.4464V13.2163L11.6152 11.5354Z" fill="#9095A5"/>
<path d="M7.86719 5.77443V5.54151L10.614 4.61548L10.6397 4.84558L7.86719 5.77443Z" fill="#9095A5"/>
<path d="M10.9116 7.04122L10.8403 6.45193L10.7775 5.94401L10.7148 5.4361L10.6406 4.84399L11.0228 4.97027L11.4108 5.09655L11.502 5.66059L11.5933 6.22743L11.773 6.71009L12.1324 7.1675L12.6259 7.54633L13.2049 7.79608L13.8809 7.98409L14.7766 11.5339L12.0012 10.389L10.9116 7.04122Z" fill="#DAD6F7"/>
<path d="M14.0841 8.78436L14.2324 9.37085L14.3579 9.87596L14.4863 10.3811L14.6346 10.9676L14.087 10.454L13.622 9.99943L13.1999 9.5757L12.7891 9.15196L12.3613 8.70017L11.8906 8.18384L12.4697 8.34379L12.9717 8.4841L13.4823 8.6216L14.0841 8.78436Z" fill="#DAD6F7"/>
<path d="M14.778 11.5361L14.9178 12.0945L15.0405 12.58L15.1489 13.0149L11.6148 11.5389L10.9844 7.64673L11.4607 8.19674L11.9057 8.69343L12.3336 9.15364L12.7557 9.59421L13.1921 10.0348L13.6599 10.495L14.179 10.9889L14.778 11.5361Z" fill="#DAD6F7"/>
<path d="M7.86719 5.61938H8.40058L10.9848 7.64263L11.6152 11.5348L7.86719 13.2157V5.61938Z" fill="#DAD6F7"/>
<path d="M8.92188 5.44732L9.39537 5.28456L9.79756 5.14425L10.194 5.00395L10.639 4.84399L10.7132 5.4361L10.7759 5.94401L10.8387 6.45193L10.91 7.04122L10.4536 6.69045L10.0657 6.38739L9.70343 6.10116L9.33262 5.79528L8.92188 5.44732Z" fill="#DAD6F7"/>
<path d="M10.6406 4.84399L11.4079 5.09655L11.9071 5.2565L12.3406 5.394L12.7799 5.5315L13.299 5.69146L13.4531 6.30881L13.5871 6.83918L13.7212 7.36954L13.8752 7.9869L13.1992 7.79889L13.1935 7.80169C12.9311 7.97287 12.5203 7.91955 12.2522 7.68103L11.7103 7.18714C11.3081 7.02438 11.0143 6.69326 10.9373 6.32284L10.6406 4.84399Z" fill="#14AD98"/>
<path d="M10.9905 7.64669L10.4828 7.27066L10.0407 6.94234L9.64133 6.63366L9.25341 6.32779L8.85122 5.99947L8.40625 5.62344L8.92824 5.44946L9.33898 5.79743L9.70979 6.1033L10.072 6.38953L10.46 6.69259L10.9163 7.04336L10.9534 7.34362L10.9905 7.64669Z" fill="#FCFDFA"/>
<path d="M14.0888 10.4536L14.6364 10.9671L14.779 11.5339L10.9882 7.64459L10.9511 7.34152L10.9141 7.04126L14.0888 10.4536Z" fill="#FCFDFA"/>
<path d="M14.0469 11.1896L14.3749 12.632L11.9989 11.3019L11.7422 10.6116L14.0469 11.1896Z" fill="#877FD3"/>
<path d="M14.0657 9.27707L13.5551 9.14238L13.3012 9.07503C13.15 9.03574 13.0331 8.9263 13.0074 8.80564L12.9561 8.55869L12.9504 8.51099C12.9104 8.31456 13.113 8.17425 13.3469 8.23879H13.3526L13.5979 8.30614C13.7462 8.34542 13.8631 8.45486 13.8945 8.57553L13.9544 8.82247L14.0657 9.27707Z" fill="#877FD3"/>
<path d="M10.903 9.68774L11.2453 11.6268L8.00781 13.0748L8.03919 10.698L10.903 9.68774Z" fill="#877FD3"/>
<path d="M8.96535 6.92212L9.48734 7.33462L9.95228 7.69101L10.4315 8.04739L9.87241 9.5992L8.4177 9.62446L8.85696 8.86399L8.40914 8.52725L7.86719 8.13158V7.96882L8.28649 7.60402L8.60881 7.28692L8.96535 6.92212Z" fill="#877FD3"/>
<path d="M7.90414 7.96899L7.89844 8.13175L7.99542 8.00547L7.90414 7.96899Z" fill="#7099FC"/>
<path d="M6.05526 2.83984C6.05526 1.89136 6.83681 1.12247 7.80092 1.12247V0C6.20644 0 4.91431 1.27119 4.91431 2.83984C4.91431 4.40849 7.80092 10.2229 7.80092 10.2229V4.55441C6.83681 4.55441 6.05526 3.78552 6.05526 2.83984Z" fill="#5C54A7"/>
<path d="M7.79712 0V1.12247C8.76122 1.12247 9.54278 1.89136 9.54278 2.83984C9.54278 3.78832 8.76122 4.55721 7.79712 4.55721V10.2229C7.79712 10.2229 10.6837 4.40849 10.6837 2.83984C10.6837 1.27119 9.3916 0 7.79712 0Z" fill="black"/>
<path d="M9.0978 2.83932C9.0978 3.54647 8.51592 4.11893 7.79712 4.11893V4.55389C8.76122 4.55389 9.54278 3.785 9.54278 2.83651C9.54278 1.88803 8.76122 1.11914 7.79712 1.11914V1.5541C8.51592 1.5569 9.0978 2.13217 9.0978 2.83932Z" fill="#5C54A7"/>
<path d="M6.05493 2.8407C6.05493 3.78918 6.83648 4.55807 7.80059 4.55807V4.12312C7.08179 4.12312 6.4999 3.55066 6.4999 2.8435C6.4999 2.13635 7.08179 1.56389 7.80059 1.56389V1.12894C6.83648 1.12332 6.05493 1.89221 6.05493 2.8407Z" fill="black"/>
<path d="M6.50024 2.83906C6.50024 3.54621 7.08213 4.11867 7.80093 4.11867V1.55664C7.08213 1.55664 6.50024 2.13191 6.50024 2.83906Z" fill="#9095A5"/>
<path d="M9.0978 2.83821C9.0978 2.13105 8.51592 1.55859 7.79712 1.55859V4.12062C8.51592 4.11782 9.0978 3.54536 9.0978 2.83821Z" fill="#9095A5"/>
</svg>
