<svg width="375" height="385" viewBox="0 0 375 385" fill="none" xmlns="http://www.w3.org/2000/svg">
<path d="M135.334 -47.5744C84.2069 -80.8961 15.7473 -66.4618 -17.5744 -15.3343C-50.8961 35.7931 -36.4618 104.253 14.6657 137.574L135.334 -47.5744ZM290.677 56.4771L321.909 -49.5173H321.909L290.677 56.4771ZM433.76 177.623L518.479 106.681L518.479 106.681L433.76 177.623ZM14.6657 137.574C84.4201 183.036 156.193 166.293 182.652 161.862C213.141 156.756 231.914 154.359 259.445 162.472L321.909 -49.5173C243.717 -72.5569 182.931 -62.2619 146.152 -56.103C105.342 -49.2691 122.138 -56.1751 135.334 -47.5744L14.6657 137.574ZM259.445 162.472C288.033 170.895 305.143 185.601 315.923 198.207C321.536 204.771 325.662 211.076 328.723 216.299C330.298 218.989 331.551 221.308 333.125 224.236C333.707 225.318 335.064 227.855 336.404 230.211C336.476 230.337 341.41 239.454 349.04 248.566L518.479 106.681C522.885 111.943 525.699 116.363 526.491 117.611C527.607 119.37 528.337 120.654 528.501 120.942C528.745 121.37 528.772 121.437 527.769 119.571C526.173 116.602 523.231 111.11 519.407 104.584C511.669 91.3747 500.174 73.6242 483.885 54.5759C450.86 15.9572 399.043 -26.7893 321.909 -49.5173L259.445 162.472ZM349.04 248.566C344.519 243.167 341.664 238.627 341.257 237.99C340.321 236.524 339.732 235.505 339.623 235.317C339.39 234.913 339.558 235.19 340.326 236.625C341.813 239.406 343.922 243.477 346.871 249.194C352.404 259.923 360.205 275.118 367.978 289.355C374.697 301.66 385.191 320.402 396.083 334.732C399.088 338.685 404.085 344.942 410.766 351.407C414.581 355.098 431.647 371.889 459.454 379.996C475.885 384.786 500.825 387.852 528.43 378.042C556.62 368.024 574.882 349.103 585.34 332.737C602.557 305.793 603.227 279.161 603.428 273.599L382.572 265.629C382.647 263.549 382.786 239.291 399.113 213.739C409.126 198.069 426.855 179.598 454.427 169.8C481.414 160.21 505.654 163.264 521.307 167.828C547.558 175.48 562.759 190.956 564.449 192.591C569.006 197 571.618 200.46 572.026 200.997C572.534 201.665 569.261 196.839 561.948 183.447C555.69 171.985 549.196 159.353 543.289 147.898C540.517 142.523 537.619 136.912 535.204 132.396C534.019 130.182 532.512 127.405 530.927 124.665C530.143 123.308 528.959 121.301 527.516 119.041C526.602 117.61 523.327 112.47 518.479 106.681L349.04 248.566Z" fill="#6659B3"/>
</svg>
