<svg width="24" height="25" viewBox="0 0 24 25" fill="none" xmlns="http://www.w3.org/2000/svg">
<path d="M18.8372 8.60632V13.6569C18.8372 16.6774 17.1501 17.972 14.6195 17.972H6.19375C5.7624 17.972 5.35022 17.9327 4.96679 17.8445C4.72715 17.8052 4.4971 17.7366 4.28621 17.6581C2.84837 17.1089 1.97607 15.834 1.97607 13.6569V8.60632C1.97607 5.58578 3.66315 4.29126 6.19375 4.29126H14.6195C16.7667 4.29126 18.31 5.22292 18.7222 7.35103C18.7893 7.74331 18.8372 8.14539 18.8372 8.60632Z" stroke="black" stroke-width="1.5" stroke-miterlimit="10" stroke-linecap="round" stroke-linejoin="round"/>
<path d="M21.7139 11.5482V16.5988C21.7139 19.6193 20.0268 20.9138 17.4962 20.9138H9.07043C8.36109 20.9138 7.71885 20.8158 7.16288 20.6C6.02219 20.1685 5.24576 19.2761 4.96777 17.8443C5.3512 17.9325 5.76338 17.9718 6.19474 17.9718H14.6205C17.1511 17.9718 18.8382 16.6772 18.8382 13.6567V8.60612C18.8382 8.14519 18.7998 7.7333 18.7232 7.35083C20.5444 7.74311 21.7139 9.05724 21.7139 11.5482Z" stroke="black" stroke-width="1.5" stroke-miterlimit="10" stroke-linecap="round" stroke-linejoin="round"/>
<path d="M4.91895 8.97887V13.2939M15.8868 8.97887V13.2939M10.4 13.7254C11.0712 13.7254 11.7148 13.4527 12.1894 12.9671C12.664 12.4816 12.9306 11.8231 12.9306 11.1364C12.9306 10.4497 12.664 9.79121 12.1894 9.30567C11.7148 8.82014 11.0712 8.54736 10.4 8.54736C9.72885 8.54736 9.08518 8.82014 8.6106 9.30567C8.13602 9.79121 7.8694 10.4497 7.8694 11.1364C7.8694 11.8231 8.13602 12.4816 8.6106 12.9671C9.08518 13.4527 9.72885 13.7254 10.4 13.7254Z" stroke="black" stroke-width="1.5" stroke-miterlimit="10" stroke-linecap="round" stroke-linejoin="round"/>
</svg>
