<svg width="278" height="278" viewBox="0 0 278 278" fill="none" xmlns="http://www.w3.org/2000/svg">
<mask id="mask0_1_233" style="mask-type:luminance" maskUnits="userSpaceOnUse" x="0" y="0" width="278" height="278">
<path fill-rule="evenodd" clip-rule="evenodd" d="M0 0.000160217H278V278H0V0.000160217Z" fill="white"/>
</mask>
<g mask="url(#mask0_1_233)">
<path fill-rule="evenodd" clip-rule="evenodd" d="M139 0.000160217C62.2326 0.000160217 0 62.2328 0 139C0 215.768 62.2326 278 139 278C215.767 278 278 215.768 278 139C278 62.2328 215.767 0.000160217 139 0.000160217Z" fill="#EFF3F9"/>
</g>
<path fill-rule="evenodd" clip-rule="evenodd" d="M105.924 231.359C95.9393 231.359 87.846 223.265 87.846 213.281C87.846 203.297 95.9393 195.203 105.924 195.203C115.908 195.203 124.002 203.297 124.002 213.281C124.002 223.265 115.908 231.359 105.924 231.359Z" fill="white"/>
<path fill-rule="evenodd" clip-rule="evenodd" d="M69.3662 193.943C66.4521 193.943 64.0891 191.581 64.0891 188.666C64.0891 185.752 66.4521 183.389 69.3662 183.389C72.2804 183.389 74.6434 185.752 74.6434 188.666C74.6434 191.581 72.2804 193.943 69.3662 193.943Z" fill="white"/>
<path fill-rule="evenodd" clip-rule="evenodd" d="M155.908 220.314C153.966 220.314 152.392 218.739 152.392 216.797C152.392 214.855 153.966 213.281 155.908 213.281C157.85 213.281 159.424 214.855 159.424 216.797C159.424 218.739 157.85 220.314 155.908 220.314Z" fill="white"/>
<path fill-rule="evenodd" clip-rule="evenodd" d="M204.568 54.2927C202.626 54.2927 201.052 52.7187 201.052 50.7767C201.052 48.8347 202.626 47.2607 204.568 47.2607C206.51 47.2607 208.084 48.8347 208.084 50.7767C208.084 52.7187 206.51 54.2927 204.568 54.2927Z" fill="white"/>
<path fill-rule="evenodd" clip-rule="evenodd" d="M188.822 86.2388H196.695V85.5535C196.695 83.2403 194.82 81.365 192.506 81.365H169.908C167.595 81.365 165.72 83.2403 165.72 85.5535V152.351H183.282V91.7787C183.282 88.7191 185.762 86.2388 188.822 86.2388Z" fill="#E0E8F6"/>
<mask id="mask1_1_233" style="mask-type:luminance" maskUnits="userSpaceOnUse" x="0" y="0" width="278" height="278">
<path fill-rule="evenodd" clip-rule="evenodd" d="M0 278H278V0H0V278Z" fill="white"/>
</mask>
<g mask="url(#mask1_1_233)">
<path fill-rule="evenodd" clip-rule="evenodd" d="M141.945 152.35H161.151V94.561H141.945V152.35Z" fill="#D0DBF0"/>
<path fill-rule="evenodd" clip-rule="evenodd" d="M189.643 78.1881H172.772C172.127 78.1881 171.605 77.6658 171.605 77.0206V70.1751C171.605 69.5307 172.127 69.0076 172.772 69.0076H189.643C190.288 69.0076 190.81 69.5307 190.81 70.1751V77.0206C190.81 77.6658 190.288 78.1881 189.643 78.1881Z" fill="#E0E8F6"/>
<path fill-rule="evenodd" clip-rule="evenodd" d="M137.784 152.35H98.6842V53.9657C98.6842 51.8067 100.712 50.2223 102.808 50.7446L135.268 58.8419C136.746 59.2107 137.784 60.5388 137.784 62.063V152.35Z" fill="#D0DBF0"/>
<path fill-rule="evenodd" clip-rule="evenodd" d="M81.3508 152.35V118.344C81.3508 115.294 83.823 112.822 86.873 112.822H93.136V152.35H81.3508Z" fill="#E0E8F6"/>
<path fill-rule="evenodd" clip-rule="evenodd" d="M179.821 145.878C179.011 145.878 178.354 145.221 178.354 144.412V92.7911C178.354 91.9804 179.011 91.3248 179.821 91.3248C180.631 91.3248 181.287 91.9804 181.287 92.7911V144.412C181.287 145.221 180.631 145.878 179.821 145.878Z" fill="#C0CBE2"/>
<path fill-rule="evenodd" clip-rule="evenodd" d="M171.684 145.878C170.874 145.878 170.218 145.221 170.218 144.412V92.7911C170.218 91.9804 170.874 91.3248 171.684 91.3248C172.494 91.3248 173.15 91.9804 173.15 92.7911V144.412C173.15 145.221 172.494 145.878 171.684 145.878Z" fill="#C0CBE2"/>
<path fill-rule="evenodd" clip-rule="evenodd" d="M130.369 73.5979H107.22C105.953 73.5979 104.925 72.5703 104.925 71.3032C104.925 70.0353 105.953 69.0077 107.22 69.0077H130.369C131.636 69.0077 132.664 70.0353 132.664 71.3032C132.664 72.5703 131.636 73.5979 130.369 73.5979Z" fill="#C1CAE7"/>
<path fill-rule="evenodd" clip-rule="evenodd" d="M130.369 83.6597H107.22C105.953 83.6597 104.925 82.632 104.925 81.365C104.925 80.0971 105.953 79.0695 107.22 79.0695H130.369C131.636 79.0695 132.664 80.0971 132.664 81.365C132.664 82.632 131.636 83.6597 130.369 83.6597Z" fill="#C1CAE7"/>
<path fill-rule="evenodd" clip-rule="evenodd" d="M130.369 93.7219H107.22C105.953 93.7219 104.925 92.6943 104.925 91.4264C104.925 90.1593 105.953 89.1317 107.22 89.1317H130.369C131.636 89.1317 132.664 90.1593 132.664 91.4264C132.664 92.6943 131.636 93.7219 130.369 93.7219Z" fill="#C1CAE7"/>
<path fill-rule="evenodd" clip-rule="evenodd" d="M130.369 103.784H107.22C105.953 103.784 104.925 102.756 104.925 101.489C104.925 100.221 105.953 99.1935 107.22 99.1935H130.369C131.636 99.1935 132.664 100.221 132.664 101.489C132.664 102.756 131.636 103.784 130.369 103.784Z" fill="#C1CAE7"/>
<path fill-rule="evenodd" clip-rule="evenodd" d="M130.369 113.846H107.22C105.953 113.846 104.925 112.818 104.925 111.551C104.925 110.283 105.953 109.255 107.22 109.255H130.369C131.636 109.255 132.664 110.283 132.664 111.551C132.664 112.818 131.636 113.846 130.369 113.846Z" fill="#C1CAE7"/>
<path fill-rule="evenodd" clip-rule="evenodd" d="M130.369 123.908H107.22C105.953 123.908 104.925 122.88 104.925 121.612C104.925 120.345 105.953 119.317 107.22 119.317H130.369C131.636 119.317 132.664 120.345 132.664 121.612C132.664 122.88 131.636 123.908 130.369 123.908Z" fill="#C1CAE7"/>
<path fill-rule="evenodd" clip-rule="evenodd" d="M130.369 133.969H107.22C105.953 133.969 104.925 132.942 104.925 131.675C104.925 130.407 105.953 129.379 107.22 129.379H130.369C131.636 129.379 132.664 130.407 132.664 131.675C132.664 132.942 131.636 133.969 130.369 133.969Z" fill="#C1CAE7"/>
<path fill-rule="evenodd" clip-rule="evenodd" d="M130.369 144.032H107.22C105.953 144.032 104.925 143.004 104.925 141.737C104.925 140.468 105.953 139.441 107.22 139.441H130.369C131.636 139.441 132.664 140.468 132.664 141.737C132.664 143.004 131.636 144.032 130.369 144.032Z" fill="#C1CAE7"/>
<path fill-rule="evenodd" clip-rule="evenodd" d="M72.3321 152.35H41.3568V91.2458C41.3568 88.4802 43.5985 86.2386 46.364 86.2386H67.3249C70.0904 86.2386 72.3321 88.4802 72.3321 91.2458V152.35Z" fill="#E0E8F6"/>
<path fill-rule="evenodd" clip-rule="evenodd" d="M66.467 99.4133H47.2215C46.1441 99.4133 45.2699 98.5399 45.2699 97.4617V97.3877C45.2699 96.3095 46.1441 95.4353 47.2215 95.4353H66.467C67.5452 95.4353 68.4186 96.3095 68.4186 97.3877V97.4617C68.4186 98.5399 67.5452 99.4133 66.467 99.4133Z" fill="#C1CAE7"/>
<path fill-rule="evenodd" clip-rule="evenodd" d="M66.467 108.133H47.2215C46.1441 108.133 45.2699 107.259 45.2699 106.181V106.107C45.2699 105.029 46.1441 104.155 47.2215 104.155H66.467C67.5452 104.155 68.4186 105.029 68.4186 106.107V106.181C68.4186 107.259 67.5452 108.133 66.467 108.133Z" fill="#C1CAE7"/>
<path fill-rule="evenodd" clip-rule="evenodd" d="M66.467 116.852H47.2215C46.1441 116.852 45.2699 115.978 45.2699 114.9V114.826C45.2699 113.748 46.1441 112.874 47.2215 112.874H66.467C67.5452 112.874 68.4186 113.748 68.4186 114.826V114.9C68.4186 115.978 67.5452 116.852 66.467 116.852Z" fill="#C1CAE7"/>
<path fill-rule="evenodd" clip-rule="evenodd" d="M66.467 125.571H47.2215C46.1441 125.571 45.2699 124.698 45.2699 123.619V123.546C45.2699 122.467 46.1441 121.593 47.2215 121.593H66.467C67.5452 121.593 68.4186 122.467 68.4186 123.546V123.619C68.4186 124.698 67.5452 125.571 66.467 125.571Z" fill="#C1CAE7"/>
<path fill-rule="evenodd" clip-rule="evenodd" d="M66.467 134.29H47.2215C46.1441 134.29 45.2699 133.416 45.2699 132.339V132.265C45.2699 131.187 46.1441 130.312 47.2215 130.312H66.467C67.5452 130.312 68.4186 131.187 68.4186 132.265V132.339C68.4186 133.416 67.5452 134.29 66.467 134.29Z" fill="#C1CAE7"/>
<path fill-rule="evenodd" clip-rule="evenodd" d="M66.467 143.009H47.2215C46.1441 143.009 45.2699 142.136 45.2699 141.058V140.984C45.2699 139.906 46.1441 139.032 47.2215 139.032H66.467C67.5452 139.032 68.4186 139.906 68.4186 140.984V141.058C68.4186 142.136 67.5452 143.009 66.467 143.009Z" fill="#C1CAE7"/>
<path fill-rule="evenodd" clip-rule="evenodd" d="M223.07 155.124H185.155V94.5522C185.155 91.4926 187.635 89.0131 190.694 89.0131H217.53C220.59 89.0131 223.07 91.4926 223.07 94.5522V155.124Z" fill="#E0E8F6"/>
<path fill-rule="evenodd" clip-rule="evenodd" d="M216.291 102.187H191.933C190.835 102.187 189.945 101.297 189.945 100.198C189.945 99.1004 190.835 98.2094 191.933 98.2094H216.291C217.39 98.2094 218.281 99.1004 218.281 100.198C218.281 101.297 217.39 102.187 216.291 102.187Z" fill="#C1CAE7"/>
<path fill-rule="evenodd" clip-rule="evenodd" d="M216.291 110.907H191.933C190.835 110.907 189.945 110.016 189.945 108.917C189.945 107.819 190.835 106.929 191.933 106.929H216.291C217.39 106.929 218.281 107.819 218.281 108.917C218.281 110.016 217.39 110.907 216.291 110.907Z" fill="#C1CAE7"/>
<path fill-rule="evenodd" clip-rule="evenodd" d="M216.291 119.626H191.933C190.835 119.626 189.945 118.736 189.945 117.637C189.945 116.538 190.835 115.648 191.933 115.648H216.291C217.39 115.648 218.281 116.538 218.281 117.637C218.281 118.736 217.39 119.626 216.291 119.626Z" fill="#C1CAE7"/>
<path fill-rule="evenodd" clip-rule="evenodd" d="M90.7719 89.1314C87.7372 89.1314 85.277 86.6712 85.277 83.6365V73.5618H64.9348V82.7518H70.2577C73.4306 82.7518 76.0025 85.3237 76.0025 88.4966V152.351H79.0356V116.261C79.0356 112.893 81.7658 110.164 85.1331 110.164H93.1365V89.1314H90.7719Z" fill="#D0DBF0"/>
<path fill-rule="evenodd" clip-rule="evenodd" d="M186.71 63.0571H175.705C175.06 63.0571 174.537 62.5348 174.537 61.8896V56.4694C174.537 55.8242 175.06 55.302 175.705 55.302H186.71C187.355 55.302 187.877 55.8242 187.877 56.4694V61.8896C187.877 62.5348 187.355 63.0571 186.71 63.0571Z" fill="#E0E8F6"/>
<path fill-rule="evenodd" clip-rule="evenodd" d="M183.282 53.1173H179.133V42.3323C179.133 41.8928 179.489 41.5361 179.928 41.5361H182.487C182.927 41.5361 183.282 41.8928 183.282 42.3323V53.1173Z" fill="#E0E8F6"/>
<path fill-rule="evenodd" clip-rule="evenodd" d="M193.575 162.521H71.5391C69.8156 162.521 68.4184 161.124 68.4184 159.4C68.4184 157.677 69.8156 156.279 71.5391 156.279H193.575C195.298 156.279 196.695 157.677 196.695 159.4C196.695 161.124 195.298 162.521 193.575 162.521Z" fill="#7E89A0"/>
<path fill-rule="evenodd" clip-rule="evenodd" d="M267.854 168.069C267.854 159.781 261.135 153.061 252.847 153.061H241.416H233.681H36.8583C34.4913 153.061 32.5726 151.143 32.5726 148.776C32.5726 146.409 34.4913 144.49 36.8583 144.49H38.1205V138.055H30.0119C21.7242 138.055 15.0048 144.773 15.0048 153.061C15.0048 161.35 21.7242 168.069 30.0119 168.069H237.839H248.561C250.929 168.069 252.847 169.988 252.847 172.354C252.847 174.721 250.929 176.64 248.561 176.64H240.537H219.442C217.664 176.64 216.223 178.081 216.223 179.858C216.223 181.636 217.664 183.076 219.442 183.076H253.024V183.067C261.23 182.971 267.854 176.297 267.854 168.069Z" fill="#919DB6"/>
<path fill-rule="evenodd" clip-rule="evenodd" d="M203.801 176.64H183.038C181.261 176.64 179.82 178.081 179.82 179.858C179.82 181.636 181.261 183.076 183.038 183.076H203.801C205.578 183.076 207.019 181.636 207.019 179.858C207.019 178.081 205.578 176.64 203.801 176.64Z" fill="#919DB6"/>
<path fill-rule="evenodd" clip-rule="evenodd" d="M189.429 113.753V118.347H193.668V115.874C193.668 114.117 192.245 112.693 190.488 112.693C189.903 112.693 189.429 113.168 189.429 113.753Z" fill="#E9E3D5"/>
<path fill-rule="evenodd" clip-rule="evenodd" d="M220.58 146.885C220.074 146.386 219.815 145.687 219.815 144.976V138.133C219.815 135.382 218.923 132.704 217.271 130.503L209.639 120.326C208.037 118.19 205.524 116.934 202.854 116.934H182.286C179.27 116.934 176.48 118.535 174.961 121.141L167.522 133.894L158.614 134.962C158.341 134.994 158.071 135.04 157.805 135.098L151.128 143.311V150.854C151.128 153.196 153.025 155.094 155.368 155.094H217.129C219.471 155.094 221.368 153.196 221.368 150.854V148.773C221.368 148.064 221.085 147.383 220.58 146.885Z" fill="#FFB545"/>
<path fill-rule="evenodd" clip-rule="evenodd" d="M220.583 146.887C220.075 146.387 219.815 145.688 219.815 144.976V142.374V138.133C219.815 135.491 218.975 132.775 217.271 130.503L209.639 120.326C208.764 119.161 207.619 118.26 206.325 117.678C205.146 119.152 205.062 121.29 206.246 122.87L211.176 129.441L206.818 133.894H211.307C213.636 133.894 215.562 135.76 215.575 138.089V138.133V144.976V145.004C215.578 145.776 214.707 146.237 214.091 145.773C212.141 144.305 209.718 143.434 207.095 143.434C202.161 143.434 197.935 146.515 196.235 150.854H193.669V121.174H189.429V150.854H172.499C170.86 147.114 167.125 144.493 162.787 144.493C158.45 144.493 154.718 147.114 153.079 150.854H151.128C151.128 153.196 153.025 155.094 155.368 155.094H217.129C219.471 155.094 221.369 153.196 221.369 150.854V148.854C221.369 148.122 221.103 147.401 220.583 146.887Z" fill="#FF7E40"/>
<path fill-rule="evenodd" clip-rule="evenodd" d="M180.878 139.194H185.117C185.703 139.194 186.178 138.72 186.178 138.135C186.178 137.549 185.703 137.074 185.117 137.074H180.878C180.293 137.074 179.819 137.549 179.819 138.135C179.819 138.72 180.293 139.194 180.878 139.194Z" fill="#35404A"/>
<path fill-rule="evenodd" clip-rule="evenodd" d="M197.837 139.194H202.077C202.663 139.194 203.138 138.72 203.138 138.135C203.138 137.549 202.663 137.074 202.077 137.074H197.837C197.252 137.074 196.778 137.549 196.778 138.135C196.778 138.72 197.252 139.194 197.837 139.194Z" fill="#35404A"/>
<path fill-rule="evenodd" clip-rule="evenodd" d="M178.623 123.277L172.43 133.894H189.428V121.173H182.286C180.783 121.173 179.38 121.979 178.623 123.277Z" fill="#87F8F4"/>
<path fill-rule="evenodd" clip-rule="evenodd" d="M210.699 128.806L206.247 122.87C205.446 121.801 204.189 121.174 202.854 121.174H193.668V133.894H208.154C209.911 133.894 211.334 132.47 211.334 130.714C211.334 130.025 211.112 129.356 210.699 128.806Z" fill="#87F8F4"/>
<path fill-rule="evenodd" clip-rule="evenodd" d="M216.281 138.134C215.111 138.134 214.161 139.083 214.161 140.255C214.161 141.424 215.111 142.374 216.281 142.374H219.814V138.134H216.281Z" fill="#C5324F"/>
<path fill-rule="evenodd" clip-rule="evenodd" d="M152.289 139.03C152.281 139.042 152.275 139.054 152.268 139.066C152.194 139.193 152.123 139.324 152.056 139.456C151.46 140.621 151.128 141.935 151.128 143.311H153.565C155.907 143.311 157.805 141.413 157.805 139.071V135.097C155.506 135.595 153.484 137.002 152.289 139.03Z" fill="#E9E3D5"/>
<path fill-rule="evenodd" clip-rule="evenodd" d="M162.787 162.514C158.696 162.514 155.368 159.185 155.368 155.094C155.368 151.002 158.696 147.674 162.787 147.674C166.879 147.674 170.207 151.002 170.207 155.094C170.207 159.185 166.879 162.514 162.787 162.514Z" fill="#596775"/>
<path fill-rule="evenodd" clip-rule="evenodd" d="M164.305 147.83C163.434 149.437 163.678 151.487 165.036 152.845L160.539 157.342C159.181 155.984 157.13 155.741 155.523 156.61C156.226 159.976 159.216 162.513 162.787 162.513C166.879 162.513 170.208 159.185 170.208 155.093C170.208 151.522 167.669 148.533 164.305 147.83Z" fill="#35404A"/>
<path fill-rule="evenodd" clip-rule="evenodd" d="M165.967 155.093C165.967 156.851 164.544 158.274 162.787 158.274C161.031 158.274 159.608 156.851 159.608 155.093C159.608 153.337 161.031 151.914 162.787 151.914C164.544 151.914 165.967 153.337 165.967 155.093Z" fill="#E9E3D5"/>
<path fill-rule="evenodd" clip-rule="evenodd" d="M207.095 162.514C203.003 162.514 199.675 159.185 199.675 155.094C199.675 151.002 203.003 147.674 207.095 147.674C211.187 147.674 214.515 151.002 214.515 155.094C214.515 159.185 211.187 162.514 207.095 162.514Z" fill="#596775"/>
<path fill-rule="evenodd" clip-rule="evenodd" d="M208.612 147.83C207.742 149.437 207.985 151.487 209.343 152.845L204.845 157.342C203.488 155.984 201.438 155.741 199.831 156.61C200.533 159.976 203.524 162.513 207.094 162.513C211.186 162.513 214.515 159.185 214.515 155.093C214.515 151.522 211.978 148.533 208.612 147.83Z" fill="#35404A"/>
<path fill-rule="evenodd" clip-rule="evenodd" d="M210.275 155.093C210.275 156.851 208.851 158.274 207.095 158.274C205.338 158.274 203.915 156.851 203.915 155.093C203.915 153.337 205.338 151.914 207.095 151.914C208.851 151.914 210.275 153.337 210.275 155.093Z" fill="#E9E3D5"/>
</g>
</svg>
