<svg width="278" height="278" viewBox="0 0 278 278" fill="none" xmlns="http://www.w3.org/2000/svg">
<mask id="mask0_1_159" style="mask-type:luminance" maskUnits="userSpaceOnUse" x="0" y="0" width="278" height="278">
<path fill-rule="evenodd" clip-rule="evenodd" d="M0 0.000167847H278V278H0V0.000167847Z" fill="white"/>
</mask>
<g mask="url(#mask0_1_159)">
<path fill-rule="evenodd" clip-rule="evenodd" d="M139 0.000167847C62.2326 0.000167847 0 62.2328 0 139C0 215.768 62.2326 278 139 278C215.767 278 278 215.768 278 139C278 62.2328 215.767 0.000167847 139 0.000167847Z" fill="#EFF3F9"/>
</g>
<path fill-rule="evenodd" clip-rule="evenodd" d="M105.924 231.359C95.9397 231.359 87.8456 223.265 87.8456 213.281C87.8456 203.297 95.9397 195.203 105.924 195.203C115.908 195.203 124.002 203.297 124.002 213.281C124.002 223.265 115.908 231.359 105.924 231.359Z" fill="white"/>
<path fill-rule="evenodd" clip-rule="evenodd" d="M69.3658 193.943C66.4516 193.943 64.0894 191.581 64.0894 188.666C64.0894 185.752 66.4516 183.389 69.3658 183.389C72.2808 183.389 74.643 185.752 74.643 188.666C74.643 191.581 72.2808 193.943 69.3658 193.943Z" fill="white"/>
<path fill-rule="evenodd" clip-rule="evenodd" d="M155.908 220.314C153.966 220.314 152.392 218.739 152.392 216.797C152.392 214.855 153.966 213.281 155.908 213.281C157.85 213.281 159.424 214.855 159.424 216.797C159.424 218.739 157.85 220.314 155.908 220.314Z" fill="white"/>
<path fill-rule="evenodd" clip-rule="evenodd" d="M204.568 54.2927C202.626 54.2927 201.052 52.7187 201.052 50.7767C201.052 48.8347 202.626 47.2607 204.568 47.2607C206.51 47.2607 208.084 48.8347 208.084 50.7767C208.084 52.7187 206.51 54.2927 204.568 54.2927Z" fill="white"/>
<path fill-rule="evenodd" clip-rule="evenodd" d="M188.822 86.2388H196.695V85.5535C196.695 83.2403 194.82 81.365 192.506 81.365H169.908C167.595 81.365 165.72 83.2403 165.72 85.5535V152.351H183.282V91.7787C183.282 88.7191 185.762 86.2388 188.822 86.2388Z" fill="#E0E8F6"/>
<mask id="mask1_1_159" style="mask-type:luminance" maskUnits="userSpaceOnUse" x="0" y="0" width="278" height="278">
<path fill-rule="evenodd" clip-rule="evenodd" d="M0 278H278V0H0V278Z" fill="white"/>
</mask>
<g mask="url(#mask1_1_159)">
<path fill-rule="evenodd" clip-rule="evenodd" d="M141.945 152.35H161.151V94.561H141.945V152.35Z" fill="#D0DBF0"/>
<path fill-rule="evenodd" clip-rule="evenodd" d="M189.643 78.1881H172.772C172.127 78.1881 171.605 77.6658 171.605 77.0206V70.1751C171.605 69.5307 172.127 69.0076 172.772 69.0076H189.643C190.288 69.0076 190.81 69.5307 190.81 70.1751V77.0206C190.81 77.6658 190.288 78.1881 189.643 78.1881Z" fill="#E0E8F6"/>
<path fill-rule="evenodd" clip-rule="evenodd" d="M137.784 152.35H98.6838V53.9657C98.6838 51.8067 100.713 50.2223 102.808 50.7446L135.267 58.8419C136.747 59.2107 137.784 60.5388 137.784 62.063V152.35Z" fill="#D0DBF0"/>
<path fill-rule="evenodd" clip-rule="evenodd" d="M81.3512 152.35V118.344C81.3512 115.294 83.8226 112.822 86.8726 112.822H93.1364V152.35H81.3512Z" fill="#E0E8F6"/>
<path fill-rule="evenodd" clip-rule="evenodd" d="M179.821 145.878C179.011 145.878 178.354 145.221 178.354 144.412V92.7911C178.354 91.9804 179.011 91.3248 179.821 91.3248C180.631 91.3248 181.287 91.9804 181.287 92.7911V144.412C181.287 145.221 180.631 145.878 179.821 145.878Z" fill="#C0CBE2"/>
<path fill-rule="evenodd" clip-rule="evenodd" d="M171.684 145.878C170.874 145.878 170.218 145.221 170.218 144.412V92.7911C170.218 91.9804 170.874 91.3248 171.684 91.3248C172.494 91.3248 173.15 91.9804 173.15 92.7911V144.412C173.15 145.221 172.494 145.878 171.684 145.878Z" fill="#C0CBE2"/>
<path fill-rule="evenodd" clip-rule="evenodd" d="M130.369 73.5979H107.22C105.952 73.5979 104.926 72.5703 104.926 71.3032C104.926 70.0353 105.952 69.0077 107.22 69.0077H130.369C131.637 69.0077 132.664 70.0353 132.664 71.3032C132.664 72.5703 131.637 73.5979 130.369 73.5979Z" fill="#C1CAE7"/>
<path fill-rule="evenodd" clip-rule="evenodd" d="M130.369 83.6597H107.22C105.952 83.6597 104.926 82.632 104.926 81.365C104.926 80.0971 105.952 79.0695 107.22 79.0695H130.369C131.637 79.0695 132.664 80.0971 132.664 81.365C132.664 82.632 131.637 83.6597 130.369 83.6597Z" fill="#C1CAE7"/>
<path fill-rule="evenodd" clip-rule="evenodd" d="M130.369 93.7219H107.22C105.952 93.7219 104.926 92.6943 104.926 91.4264C104.926 90.1593 105.952 89.1317 107.22 89.1317H130.369C131.637 89.1317 132.664 90.1593 132.664 91.4264C132.664 92.6943 131.637 93.7219 130.369 93.7219Z" fill="#C1CAE7"/>
<path fill-rule="evenodd" clip-rule="evenodd" d="M130.369 103.784H107.22C105.952 103.784 104.926 102.756 104.926 101.489C104.926 100.221 105.952 99.1935 107.22 99.1935H130.369C131.637 99.1935 132.664 100.221 132.664 101.489C132.664 102.756 131.637 103.784 130.369 103.784Z" fill="#C1CAE7"/>
<path fill-rule="evenodd" clip-rule="evenodd" d="M130.369 113.846H107.22C105.952 113.846 104.926 112.818 104.926 111.551C104.926 110.283 105.952 109.255 107.22 109.255H130.369C131.637 109.255 132.664 110.283 132.664 111.551C132.664 112.818 131.637 113.846 130.369 113.846Z" fill="#C1CAE7"/>
<path fill-rule="evenodd" clip-rule="evenodd" d="M130.369 123.908H107.22C105.952 123.908 104.926 122.88 104.926 121.612C104.926 120.345 105.952 119.317 107.22 119.317H130.369C131.637 119.317 132.664 120.345 132.664 121.612C132.664 122.88 131.637 123.908 130.369 123.908Z" fill="#C1CAE7"/>
<path fill-rule="evenodd" clip-rule="evenodd" d="M130.369 133.969H107.22C105.952 133.969 104.926 132.942 104.926 131.675C104.926 130.407 105.952 129.379 107.22 129.379H130.369C131.637 129.379 132.664 130.407 132.664 131.675C132.664 132.942 131.637 133.969 130.369 133.969Z" fill="#C1CAE7"/>
<path fill-rule="evenodd" clip-rule="evenodd" d="M130.369 144.032H107.22C105.952 144.032 104.926 143.004 104.926 141.737C104.926 140.468 105.952 139.441 107.22 139.441H130.369C131.637 139.441 132.664 140.468 132.664 141.737C132.664 143.004 131.637 144.032 130.369 144.032Z" fill="#C1CAE7"/>
<path fill-rule="evenodd" clip-rule="evenodd" d="M72.3318 152.35H41.3564V91.2458C41.3564 88.4802 43.5981 86.2386 46.3637 86.2386H67.3253C70.0901 86.2386 72.3318 88.4802 72.3318 91.2458V152.35Z" fill="#E0E8F6"/>
<path fill-rule="evenodd" clip-rule="evenodd" d="M66.4674 99.4133H47.2219C46.1437 99.4133 45.2695 98.5399 45.2695 97.4617V97.3877C45.2695 96.3095 46.1437 95.4353 47.2219 95.4353H66.4674C67.5449 95.4353 68.419 96.3095 68.419 97.3877V97.4617C68.419 98.5399 67.5449 99.4133 66.4674 99.4133Z" fill="#C1CAE7"/>
<path fill-rule="evenodd" clip-rule="evenodd" d="M66.4674 108.133H47.2219C46.1437 108.133 45.2695 107.259 45.2695 106.181V106.107C45.2695 105.029 46.1437 104.155 47.2219 104.155H66.4674C67.5449 104.155 68.419 105.029 68.419 106.107V106.181C68.419 107.259 67.5449 108.133 66.4674 108.133Z" fill="#C1CAE7"/>
<path fill-rule="evenodd" clip-rule="evenodd" d="M66.4674 116.852H47.2219C46.1437 116.852 45.2695 115.978 45.2695 114.9V114.826C45.2695 113.748 46.1437 112.874 47.2219 112.874H66.4674C67.5449 112.874 68.419 113.748 68.419 114.826V114.9C68.419 115.978 67.5449 116.852 66.4674 116.852Z" fill="#C1CAE7"/>
<path fill-rule="evenodd" clip-rule="evenodd" d="M66.4674 125.571H47.2219C46.1437 125.571 45.2695 124.698 45.2695 123.619V123.546C45.2695 122.467 46.1437 121.593 47.2219 121.593H66.4674C67.5449 121.593 68.419 122.467 68.419 123.546V123.619C68.419 124.698 67.5449 125.571 66.4674 125.571Z" fill="#C1CAE7"/>
<path fill-rule="evenodd" clip-rule="evenodd" d="M66.4674 134.29H47.2219C46.1437 134.29 45.2695 133.416 45.2695 132.339V132.265C45.2695 131.187 46.1437 130.312 47.2219 130.312H66.4674C67.5449 130.312 68.419 131.187 68.419 132.265V132.339C68.419 133.416 67.5449 134.29 66.4674 134.29Z" fill="#C1CAE7"/>
<path fill-rule="evenodd" clip-rule="evenodd" d="M66.4674 143.009H47.2219C46.1437 143.009 45.2695 142.136 45.2695 141.058V140.984C45.2695 139.906 46.1437 139.032 47.2219 139.032H66.4674C67.5449 139.032 68.419 139.906 68.419 140.984V141.058C68.419 142.136 67.5449 143.009 66.4674 143.009Z" fill="#C1CAE7"/>
<path fill-rule="evenodd" clip-rule="evenodd" d="M223.07 155.124H185.155V94.5522C185.155 91.4926 187.635 89.0131 190.694 89.0131H217.53C220.59 89.0131 223.07 91.4926 223.07 94.5522V155.124Z" fill="#E0E8F6"/>
<path fill-rule="evenodd" clip-rule="evenodd" d="M216.291 102.187H191.933C190.835 102.187 189.945 101.297 189.945 100.198C189.945 99.1004 190.835 98.2094 191.933 98.2094H216.291C217.39 98.2094 218.281 99.1004 218.281 100.198C218.281 101.297 217.39 102.187 216.291 102.187Z" fill="#C1CAE7"/>
<path fill-rule="evenodd" clip-rule="evenodd" d="M216.291 110.907H191.933C190.835 110.907 189.945 110.016 189.945 108.917C189.945 107.819 190.835 106.929 191.933 106.929H216.291C217.39 106.929 218.281 107.819 218.281 108.917C218.281 110.016 217.39 110.907 216.291 110.907Z" fill="#C1CAE7"/>
<path fill-rule="evenodd" clip-rule="evenodd" d="M216.291 119.626H191.933C190.835 119.626 189.945 118.736 189.945 117.637C189.945 116.538 190.835 115.648 191.933 115.648H216.291C217.39 115.648 218.281 116.538 218.281 117.637C218.281 118.736 217.39 119.626 216.291 119.626Z" fill="#C1CAE7"/>
<path fill-rule="evenodd" clip-rule="evenodd" d="M90.7723 89.1314C87.7376 89.1314 85.2766 86.6712 85.2766 83.6365V73.5618H64.9352V82.7518H70.2574C73.4303 82.7518 76.0022 85.3237 76.0022 88.4966V152.351H79.036V116.261C79.036 112.893 81.7654 110.164 85.1328 110.164H93.1361V89.1314H90.7723Z" fill="#D0DBF0"/>
<path fill-rule="evenodd" clip-rule="evenodd" d="M186.71 63.0571H175.705C175.06 63.0571 174.537 62.5348 174.537 61.8896V56.4694C174.537 55.8242 175.06 55.302 175.705 55.302H186.71C187.355 55.302 187.877 55.8242 187.877 56.4694V61.8896C187.877 62.5348 187.355 63.0571 186.71 63.0571Z" fill="#E0E8F6"/>
<path fill-rule="evenodd" clip-rule="evenodd" d="M183.283 53.1173H179.133V42.3323C179.133 41.8928 179.489 41.5361 179.928 41.5361H182.487C182.927 41.5361 183.283 41.8928 183.283 42.3323V53.1173Z" fill="#E0E8F6"/>
<path fill-rule="evenodd" clip-rule="evenodd" d="M193.575 162.521H71.539C69.8164 162.521 68.4184 161.124 68.4184 159.4C68.4184 157.677 69.8164 156.279 71.539 156.279H193.575C195.298 156.279 196.695 157.677 196.695 159.4C196.695 161.124 195.298 162.521 193.575 162.521Z" fill="#7E89A0"/>
<path fill-rule="evenodd" clip-rule="evenodd" d="M267.854 168.069C267.854 159.781 261.135 153.061 252.847 153.061H241.416H233.681H36.8583C34.4913 153.061 32.5726 151.143 32.5726 148.776C32.5726 146.409 34.4913 144.49 36.8583 144.49H38.1205V138.055H30.0119C21.7234 138.055 15.0048 144.773 15.0048 153.061C15.0048 161.35 21.7234 168.069 30.0119 168.069H237.839H248.561C250.929 168.069 252.847 169.988 252.847 172.354C252.847 174.721 250.929 176.64 248.561 176.64H240.537H219.442C217.664 176.64 216.223 178.081 216.223 179.858C216.223 181.636 217.664 183.076 219.442 183.076H253.024V183.067C261.23 182.971 267.854 176.297 267.854 168.069Z" fill="#919DB6"/>
<path fill-rule="evenodd" clip-rule="evenodd" d="M203.801 176.64H183.038C181.261 176.64 179.82 178.081 179.82 179.858C179.82 181.636 181.261 183.076 183.038 183.076H203.801C205.578 183.076 207.019 181.636 207.019 179.858C207.019 178.081 205.578 176.64 203.801 176.64Z" fill="#919DB6"/>
<path fill-rule="evenodd" clip-rule="evenodd" d="M106.933 207.959H163.979L174.826 232.063H96.4875L106.933 207.959Z" fill="#DCE3ED"/>
<path fill-rule="evenodd" clip-rule="evenodd" d="M96.4877 235.277H174.826V232.063H96.4877V235.277Z" fill="#B3C5D0"/>
<path fill-rule="evenodd" clip-rule="evenodd" d="M153.196 223.426H129.092C127.205 223.426 125.677 221.898 125.677 220.011C125.677 218.125 127.205 216.596 129.092 216.596H153.196C155.081 216.596 156.61 218.125 156.61 220.011C156.61 221.898 155.081 223.426 153.196 223.426Z" fill="#B3C5D0"/>
<path fill-rule="evenodd" clip-rule="evenodd" d="M139.151 152.683C115.887 152.683 97.6017 134.764 97.6017 111.967C97.6017 89.1673 115.886 71.2492 139.151 71.2492C162.415 71.2492 180.7 89.1673 180.7 111.967C180.7 134.764 162.414 152.683 139.151 152.683Z" fill="white"/>
<path fill-rule="evenodd" clip-rule="evenodd" d="M139.151 144.225C120.719 144.225 106.233 130.028 106.233 111.966C106.233 93.9034 120.719 79.7069 139.151 79.7069C157.582 79.7069 172.069 93.9034 172.069 111.966C172.069 130.028 157.581 144.225 139.151 144.225ZM139.151 52.426C105.734 52.426 78.3956 79.2176 78.3956 111.966C78.3956 156.621 139.151 222.541 139.151 222.541C139.151 222.541 199.906 156.621 199.906 111.966C199.906 79.2176 172.568 52.426 139.151 52.426Z" fill="#F6BD75"/>
</g>
<mask id="mask2_1_159" style="mask-type:luminance" maskUnits="userSpaceOnUse" x="78" y="52" width="62" height="171">
<path fill-rule="evenodd" clip-rule="evenodd" d="M78.3956 52.4785H139.15V222.594H78.3956V52.4785Z" fill="white"/>
</mask>
<g mask="url(#mask2_1_159)">
<path fill-rule="evenodd" clip-rule="evenodd" d="M139.151 144.278C120.719 144.278 106.233 130.082 106.233 112.02C106.233 93.956 120.719 79.7603 139.151 79.7603C157.582 79.7603 172.069 93.956 172.069 112.02C172.069 130.082 157.581 144.278 139.151 144.278ZM139.151 52.4785C105.734 52.4785 78.3956 79.271 78.3956 112.02C78.3956 156.675 139.151 222.594 139.151 222.594C139.151 222.594 199.906 156.675 199.906 112.02C199.906 79.271 172.568 52.4785 139.151 52.4785Z" fill="#F6BD75"/>
</g>
<path fill-rule="evenodd" clip-rule="evenodd" d="M141.042 96.9789V99.7107H143.564V98.2396C143.564 97.1959 142.717 96.349 141.672 96.349C141.324 96.349 141.042 96.631 141.042 96.9789Z" fill="#E9E3D5"/>
<path fill-rule="evenodd" clip-rule="evenodd" d="M159.568 116.683C159.267 116.385 159.113 115.97 159.113 115.547V111.478C159.113 109.841 158.581 108.249 157.599 106.94L153.06 100.887C152.108 99.6178 150.613 98.8706 149.026 98.8706H136.794C135.001 98.8706 133.342 99.8227 132.438 101.373L128.014 108.957L122.717 109.592C122.554 109.611 122.394 109.638 122.235 109.672L118.265 114.557V119.042C118.265 120.435 119.393 121.565 120.785 121.565H139.15H157.515C158.908 121.565 160.037 120.435 160.037 119.042V117.805C160.037 117.383 159.868 116.979 159.568 116.683Z" fill="#6659B3"/>
<path fill-rule="evenodd" clip-rule="evenodd" d="M159.569 116.684C159.267 116.386 159.113 115.971 159.113 115.547V114V111.478C159.113 109.907 158.613 108.291 157.599 106.94L153.06 100.887C152.541 100.195 151.859 99.6588 151.089 99.3133C150.389 100.19 150.339 101.461 151.044 102.4L153.975 106.308L151.383 108.957H154.053C155.438 108.957 156.583 110.067 156.591 111.451V111.478V115.547V115.564C156.592 116.023 156.074 116.298 155.709 116.021C154.549 115.148 153.108 114.63 151.548 114.63C148.613 114.63 146.101 116.463 145.09 119.042H143.563V101.392H141.041V119.042H130.974C129.999 116.818 127.778 115.261 125.198 115.261C122.619 115.261 120.399 116.818 119.425 119.042H118.264C118.264 120.435 119.393 121.565 120.785 121.565H157.515C158.908 121.565 160.037 120.435 160.037 119.042V117.853C160.037 117.418 159.879 116.989 159.569 116.684Z" fill="#464D60"/>
<path fill-rule="evenodd" clip-rule="evenodd" d="M135.957 112.109H138.478C138.826 112.109 139.109 111.826 139.109 111.478C139.109 111.13 138.826 110.848 138.478 110.848H135.957C135.608 110.848 135.326 111.13 135.326 111.478C135.326 111.826 135.608 112.109 135.957 112.109Z" fill="#35404A"/>
<path fill-rule="evenodd" clip-rule="evenodd" d="M146.043 112.109H148.564C148.912 112.109 149.195 111.826 149.195 111.478C149.195 111.13 148.912 110.848 148.564 110.848H146.043C145.694 110.848 145.412 111.13 145.412 111.478C145.412 111.826 145.694 112.109 146.043 112.109Z" fill="#35404A"/>
<path fill-rule="evenodd" clip-rule="evenodd" d="M134.616 102.643L130.933 108.956H141.042V101.392H136.794C135.901 101.392 135.066 101.871 134.616 102.643Z" fill="#87F8F4"/>
<path fill-rule="evenodd" clip-rule="evenodd" d="M153.691 105.931L151.043 102.4C150.567 101.765 149.82 101.392 149.026 101.392H143.563V108.957H152.178C153.222 108.957 154.069 108.11 154.069 107.065C154.069 106.656 153.937 106.258 153.691 105.931Z" fill="#87F8F4"/>
<path fill-rule="evenodd" clip-rule="evenodd" d="M157.011 111.478C156.315 111.478 155.751 112.043 155.751 112.739C155.751 113.435 156.315 114 157.011 114H159.112V111.478H157.011Z" fill="#C5324F"/>
<path fill-rule="evenodd" clip-rule="evenodd" d="M118.955 112.011C118.951 112.017 118.947 112.025 118.943 112.033C118.899 112.108 118.856 112.186 118.816 112.264C118.462 112.958 118.265 113.738 118.265 114.556H119.713C121.107 114.556 122.235 113.428 122.235 112.035V109.672C120.869 109.968 119.666 110.806 118.955 112.011Z" fill="#E9E3D5"/>
<path fill-rule="evenodd" clip-rule="evenodd" d="M125.198 125.977C122.765 125.977 120.786 123.998 120.786 121.564C120.786 119.13 122.765 117.151 125.198 117.151C127.631 117.151 129.611 119.13 129.611 121.564C129.611 123.998 127.631 125.977 125.198 125.977Z" fill="#596775"/>
<path fill-rule="evenodd" clip-rule="evenodd" d="M126.101 117.244C125.583 118.2 125.728 119.419 126.535 120.227L123.861 122.902C123.053 122.093 121.834 121.949 120.879 122.466C121.297 124.468 123.074 125.977 125.198 125.977C127.631 125.977 129.611 123.997 129.611 121.564C129.611 119.44 128.102 117.662 126.101 117.244Z" fill="#35404A"/>
<path fill-rule="evenodd" clip-rule="evenodd" d="M127.089 121.564C127.089 122.609 126.242 123.456 125.198 123.456C124.154 123.456 123.307 122.609 123.307 121.564C123.307 120.52 124.154 119.673 125.198 119.673C126.242 119.673 127.089 120.52 127.089 121.564Z" fill="#E9E3D5"/>
<path fill-rule="evenodd" clip-rule="evenodd" d="M151.548 125.977C149.115 125.977 147.135 123.998 147.135 121.564C147.135 119.13 149.115 117.151 151.548 117.151C153.981 117.151 155.96 119.13 155.96 121.564C155.96 123.998 153.981 125.977 151.548 125.977Z" fill="#596775"/>
<path fill-rule="evenodd" clip-rule="evenodd" d="M152.45 117.244C151.933 118.2 152.077 119.419 152.885 120.227L150.211 122.902C149.403 122.093 148.184 121.949 147.228 122.466C147.646 124.468 149.424 125.977 151.548 125.977C153.981 125.977 155.961 123.997 155.961 121.564C155.961 119.44 154.452 117.662 152.45 117.244Z" fill="#35404A"/>
<path fill-rule="evenodd" clip-rule="evenodd" d="M153.439 121.564C153.439 122.609 152.592 123.456 151.548 123.456C150.504 123.456 149.657 122.609 149.657 121.564C149.657 120.52 150.504 119.673 151.548 119.673C152.592 119.673 153.439 120.52 153.439 121.564Z" fill="#E9E3D5"/>
</svg>
