<svg width="278" height="278" viewBox="0 0 278 278" fill="none" xmlns="http://www.w3.org/2000/svg">
<mask id="mask0_1_82" style="mask-type:luminance" maskUnits="userSpaceOnUse" x="0" y="0" width="278" height="278">
<path fill-rule="evenodd" clip-rule="evenodd" d="M0 0.000160217H278V278H0V0.000160217Z" fill="white"/>
</mask>
<g mask="url(#mask0_1_82)">
<path fill-rule="evenodd" clip-rule="evenodd" d="M139 0.000160217C62.2326 0.000160217 0 62.2328 0 139C0 215.768 62.2326 278 139 278C215.767 278 278 215.768 278 139C278 62.2328 215.767 0.000160217 139 0.000160217Z" fill="#EFF3F9"/>
</g>
<path fill-rule="evenodd" clip-rule="evenodd" d="M105.924 231.359C95.9397 231.359 87.8456 223.265 87.8456 213.281C87.8456 203.297 95.9397 195.203 105.924 195.203C115.908 195.203 124.002 203.297 124.002 213.281C124.002 223.265 115.908 231.359 105.924 231.359Z" fill="white"/>
<path fill-rule="evenodd" clip-rule="evenodd" d="M69.3658 193.943C66.4516 193.943 64.0894 191.581 64.0894 188.666C64.0894 185.752 66.4516 183.389 69.3658 183.389C72.2808 183.389 74.643 185.752 74.643 188.666C74.643 191.581 72.2808 193.943 69.3658 193.943Z" fill="white"/>
<path fill-rule="evenodd" clip-rule="evenodd" d="M155.908 220.314C153.966 220.314 152.392 218.739 152.392 216.797C152.392 214.855 153.966 213.281 155.908 213.281C157.85 213.281 159.424 214.855 159.424 216.797C159.424 218.739 157.85 220.314 155.908 220.314Z" fill="white"/>
<path fill-rule="evenodd" clip-rule="evenodd" d="M204.568 54.2927C202.626 54.2927 201.052 52.7187 201.052 50.7767C201.052 48.8347 202.626 47.2607 204.568 47.2607C206.51 47.2607 208.084 48.8347 208.084 50.7767C208.084 52.7187 206.51 54.2927 204.568 54.2927Z" fill="white"/>
<path fill-rule="evenodd" clip-rule="evenodd" d="M183.568 94.301H191.441V93.6156C191.441 91.3024 189.566 89.4271 187.252 89.4271H164.654C162.341 89.4271 160.466 91.3024 160.466 93.6156V160.412H178.028V99.8409C178.028 96.7805 180.509 94.301 183.568 94.301Z" fill="#E0E8F6"/>
<mask id="mask1_1_82" style="mask-type:luminance" maskUnits="userSpaceOnUse" x="0" y="0" width="278" height="278">
<path fill-rule="evenodd" clip-rule="evenodd" d="M0 278H278V0H0V278Z" fill="white"/>
</mask>
<g mask="url(#mask1_1_82)">
<path fill-rule="evenodd" clip-rule="evenodd" d="M136.691 160.412H155.897V102.622H136.691V160.412Z" fill="#D0DBF0"/>
<path fill-rule="evenodd" clip-rule="evenodd" d="M184.389 86.2502H167.518C166.873 86.2502 166.351 85.7272 166.351 85.0828V78.2372C166.351 77.5929 166.873 77.0698 167.518 77.0698H184.389C185.034 77.0698 185.556 77.5929 185.556 78.2372V85.0828C185.556 85.7272 185.034 86.2502 184.389 86.2502Z" fill="#E0E8F6"/>
<path fill-rule="evenodd" clip-rule="evenodd" d="M132.53 160.413H93.4299V62.0278C93.4299 59.8689 95.4586 58.2837 97.5541 58.8067L130.013 66.9041C131.493 67.2729 132.53 68.601 132.53 70.1252V160.413Z" fill="#D0DBF0"/>
<path fill-rule="evenodd" clip-rule="evenodd" d="M76.0972 160.413V126.406C76.0972 123.356 78.5687 120.884 81.6186 120.884H87.8825V160.413H76.0972Z" fill="#E0E8F6"/>
<path fill-rule="evenodd" clip-rule="evenodd" d="M174.567 153.94C173.757 153.94 173.1 153.284 173.1 152.474V100.852C173.1 100.043 173.757 99.3861 174.567 99.3861C175.377 99.3861 176.033 100.043 176.033 100.852V152.474C176.033 153.284 175.377 153.94 174.567 153.94Z" fill="#C0CBE2"/>
<path fill-rule="evenodd" clip-rule="evenodd" d="M166.43 153.94C165.62 153.94 164.964 153.284 164.964 152.474V100.852C164.964 100.043 165.62 99.3861 166.43 99.3861C167.24 99.3861 167.896 100.043 167.896 100.852V152.474C167.896 153.284 167.24 153.94 166.43 153.94Z" fill="#C0CBE2"/>
<path fill-rule="evenodd" clip-rule="evenodd" d="M125.115 81.6597H101.966C100.698 81.6597 99.6716 80.6321 99.6716 79.365C99.6716 78.0971 100.698 77.0695 101.966 77.0695H125.115C126.383 77.0695 127.41 78.0971 127.41 79.365C127.41 80.6321 126.383 81.6597 125.115 81.6597Z" fill="#C1CAE7"/>
<path fill-rule="evenodd" clip-rule="evenodd" d="M125.115 91.7218H101.966C100.698 91.7218 99.6716 90.6942 99.6716 89.4271C99.6716 88.1593 100.698 87.1316 101.966 87.1316H125.115C126.383 87.1316 127.41 88.1593 127.41 89.4271C127.41 90.6942 126.383 91.7218 125.115 91.7218Z" fill="#C1CAE7"/>
<path fill-rule="evenodd" clip-rule="evenodd" d="M125.115 101.784H101.966C100.698 101.784 99.6716 100.756 99.6716 99.489C99.6716 98.2211 100.698 97.1935 101.966 97.1935H125.115C126.383 97.1935 127.41 98.2211 127.41 99.489C127.41 100.756 126.383 101.784 125.115 101.784Z" fill="#C1CAE7"/>
<path fill-rule="evenodd" clip-rule="evenodd" d="M125.115 111.846H101.966C100.698 111.846 99.6716 110.818 99.6716 109.55C99.6716 108.282 100.698 107.256 101.966 107.256H125.115C126.383 107.256 127.41 108.282 127.41 109.55C127.41 110.818 126.383 111.846 125.115 111.846Z" fill="#C1CAE7"/>
<path fill-rule="evenodd" clip-rule="evenodd" d="M125.115 121.908H101.966C100.698 121.908 99.6716 120.88 99.6716 119.613C99.6716 118.345 100.698 117.317 101.966 117.317H125.115C126.383 117.317 127.41 118.345 127.41 119.613C127.41 120.88 126.383 121.908 125.115 121.908Z" fill="#C1CAE7"/>
<path fill-rule="evenodd" clip-rule="evenodd" d="M125.115 131.969H101.966C100.698 131.969 99.6716 130.942 99.6716 129.675C99.6716 128.407 100.698 127.379 101.966 127.379H125.115C126.383 127.379 127.41 128.407 127.41 129.675C127.41 130.942 126.383 131.969 125.115 131.969Z" fill="#C1CAE7"/>
<path fill-rule="evenodd" clip-rule="evenodd" d="M125.115 142.032H101.966C100.698 142.032 99.6716 141.004 99.6716 139.737C99.6716 138.469 100.698 137.441 101.966 137.441H125.115C126.383 137.441 127.41 138.469 127.41 139.737C127.41 141.004 126.383 142.032 125.115 142.032Z" fill="#C1CAE7"/>
<path fill-rule="evenodd" clip-rule="evenodd" d="M125.115 152.093H101.966C100.698 152.093 99.6716 151.066 99.6716 149.798C99.6716 148.53 100.698 147.503 101.966 147.503H125.115C126.383 147.503 127.41 148.53 127.41 149.798C127.41 151.066 126.383 152.093 125.115 152.093Z" fill="#C1CAE7"/>
<path fill-rule="evenodd" clip-rule="evenodd" d="M67.0778 160.413H36.1025V99.3079C36.1025 96.5424 38.3442 94.3007 41.1097 94.3007H62.0714C64.8361 94.3007 67.0778 96.5424 67.0778 99.3079V160.413Z" fill="#E0E8F6"/>
<path fill-rule="evenodd" clip-rule="evenodd" d="M61.2134 107.475H41.968C40.8897 107.475 40.0163 106.602 40.0163 105.524V105.45C40.0163 104.372 40.8897 103.497 41.968 103.497H61.2134C62.2909 103.497 63.165 104.372 63.165 105.45V105.524C63.165 106.602 62.2909 107.475 61.2134 107.475Z" fill="#C1CAE7"/>
<path fill-rule="evenodd" clip-rule="evenodd" d="M61.2134 116.195H41.968C40.8897 116.195 40.0163 115.321 40.0163 114.243V114.169C40.0163 113.091 40.8897 112.217 41.968 112.217H61.2134C62.2909 112.217 63.165 113.091 63.165 114.169V114.243C63.165 115.321 62.2909 116.195 61.2134 116.195Z" fill="#C1CAE7"/>
<path fill-rule="evenodd" clip-rule="evenodd" d="M61.2134 124.914H41.968C40.8897 124.914 40.0163 124.04 40.0163 122.962V122.888C40.0163 121.81 40.8897 120.936 41.968 120.936H61.2134C62.2909 120.936 63.165 121.81 63.165 122.888V122.962C63.165 124.04 62.2909 124.914 61.2134 124.914Z" fill="#C1CAE7"/>
<path fill-rule="evenodd" clip-rule="evenodd" d="M61.2134 133.633H41.968C40.8897 133.633 40.0163 132.759 40.0163 131.682V131.607C40.0163 130.529 40.8897 129.655 41.968 129.655H61.2134C62.2909 129.655 63.165 130.529 63.165 131.607V131.682C63.165 132.759 62.2909 133.633 61.2134 133.633Z" fill="#C1CAE7"/>
<path fill-rule="evenodd" clip-rule="evenodd" d="M61.2134 142.352H41.968C40.8897 142.352 40.0163 141.478 40.0163 140.4V140.327C40.0163 139.249 40.8897 138.374 41.968 138.374H61.2134C62.2909 138.374 63.165 139.249 63.165 140.327V140.4C63.165 141.478 62.2909 142.352 61.2134 142.352Z" fill="#C1CAE7"/>
<path fill-rule="evenodd" clip-rule="evenodd" d="M61.2134 151.071H41.968C40.8897 151.071 40.0163 150.197 40.0163 149.12V149.046C40.0163 147.968 40.8897 147.094 41.968 147.094H61.2134C62.2909 147.094 63.165 147.968 63.165 149.046V149.12C63.165 150.197 62.2909 151.071 61.2134 151.071Z" fill="#C1CAE7"/>
<path fill-rule="evenodd" clip-rule="evenodd" d="M217.816 163.186H179.901V102.614C179.901 99.5547 182.381 97.0744 185.44 97.0744H212.276C215.336 97.0744 217.816 99.5547 217.816 102.614V163.186Z" fill="#E0E8F6"/>
<path fill-rule="evenodd" clip-rule="evenodd" d="M211.038 110.249H186.68C185.581 110.249 184.691 109.359 184.691 108.261C184.691 107.162 185.581 106.272 186.68 106.272H211.038C212.136 106.272 213.027 107.162 213.027 108.261C213.027 109.359 212.136 110.249 211.038 110.249Z" fill="#C1CAE7"/>
<path fill-rule="evenodd" clip-rule="evenodd" d="M211.038 118.968H186.68C185.581 118.968 184.691 118.078 184.691 116.98C184.691 115.881 185.581 114.99 186.68 114.99H211.038C212.136 114.99 213.027 115.881 213.027 116.98C213.027 118.078 212.136 118.968 211.038 118.968Z" fill="#C1CAE7"/>
<path fill-rule="evenodd" clip-rule="evenodd" d="M211.038 127.688H186.68C185.581 127.688 184.691 126.797 184.691 125.699C184.691 124.601 185.581 123.71 186.68 123.71H211.038C212.136 123.71 213.027 124.601 213.027 125.699C213.027 126.797 212.136 127.688 211.038 127.688Z" fill="#C1CAE7"/>
<path fill-rule="evenodd" clip-rule="evenodd" d="M85.5183 97.1935C82.4836 97.1935 80.0226 94.7333 80.0226 91.6986V81.6239H59.6812V90.814H65.0034C68.1763 90.814 70.7482 93.3859 70.7482 96.5588V160.412H73.7821V124.323C73.7821 120.955 76.5115 118.225 79.8788 118.225H87.8821V97.1935H85.5183Z" fill="#D0DBF0"/>
<path fill-rule="evenodd" clip-rule="evenodd" d="M181.456 71.1192H170.451C169.806 71.1192 169.284 70.5962 169.284 69.9518V64.5308C169.284 63.8864 169.806 63.3633 170.451 63.3633H181.456C182.101 63.3633 182.623 63.8864 182.623 64.5308V69.9518C182.623 70.5962 182.101 71.1192 181.456 71.1192Z" fill="#E0E8F6"/>
<path fill-rule="evenodd" clip-rule="evenodd" d="M178.029 61.1794H173.879V50.3945C173.879 49.955 174.235 49.5983 174.674 49.5983H177.233C177.673 49.5983 178.029 49.955 178.029 50.3945V61.1794Z" fill="#E0E8F6"/>
<path fill-rule="evenodd" clip-rule="evenodd" d="M188.321 170.583H66.2851C64.5624 170.583 63.1644 169.187 63.1644 167.462C63.1644 165.739 64.5624 164.342 66.2851 164.342H188.321C190.044 164.342 191.441 165.739 191.441 167.462C191.441 169.187 190.044 170.583 188.321 170.583Z" fill="#7E89A0"/>
<path fill-rule="evenodd" clip-rule="evenodd" d="M262.6 176.131C262.6 167.843 255.881 161.123 247.593 161.123H236.162H228.427H31.6044C29.2374 161.123 27.3187 159.205 27.3187 156.838C27.3187 154.471 29.2374 152.553 31.6044 152.553H32.8667V146.117H24.7581C16.4695 146.117 9.75089 152.835 9.75089 161.123C9.75089 169.412 16.4695 176.131 24.7581 176.131H232.586H243.307C245.675 176.131 247.593 178.05 247.593 180.416C247.593 182.783 245.675 184.702 243.307 184.702H235.284H214.188C212.41 184.702 210.969 186.142 210.969 187.92C210.969 189.698 212.41 191.138 214.188 191.138H247.77V191.13C255.976 191.033 262.6 184.359 262.6 176.131Z" fill="#919DB6"/>
<path fill-rule="evenodd" clip-rule="evenodd" d="M198.547 184.702H177.784C176.007 184.702 174.567 186.142 174.567 187.92C174.567 189.698 176.007 191.138 177.784 191.138H198.547C200.324 191.138 201.766 189.698 201.766 187.92C201.766 186.142 200.324 184.702 198.547 184.702Z" fill="#919DB6"/>
<path fill-rule="evenodd" clip-rule="evenodd" d="M164.306 231.151H106.92C98.5261 231.151 91.7215 224.346 91.7215 215.952V73.6146C91.7215 65.2208 98.5261 58.417 106.92 58.417H164.306C172.7 58.417 179.504 65.2208 179.504 73.6146V215.952C179.504 224.346 172.7 231.151 164.306 231.151Z" fill="#535565"/>
<path fill-rule="evenodd" clip-rule="evenodd" d="M161.022 226.699H110.204C102.454 226.699 96.1728 220.418 96.1728 212.668V76.8992C96.1728 69.1498 102.454 62.8683 110.204 62.8683H161.022C168.772 62.8683 175.053 69.1498 175.053 76.8992V212.668C175.053 220.418 168.772 226.699 161.022 226.699Z" fill="#FFE3E0"/>
<path fill-rule="evenodd" clip-rule="evenodd" d="M161.022 226.699H110.204C102.454 226.699 96.1728 220.418 96.1728 212.668V76.8992C96.1728 69.1498 102.454 62.8683 110.204 62.8683H161.022C168.772 62.8683 175.053 69.1498 175.053 76.8992V212.668C175.053 220.418 168.772 226.699 161.022 226.699Z" fill="#F6BD75"/>
<path fill-rule="evenodd" clip-rule="evenodd" d="M148.277 69.0357H122.949C119.778 69.0357 117.207 66.4646 117.207 63.2941V60.7447H154.019V63.2941C154.019 66.4646 151.448 69.0357 148.277 69.0357Z" fill="#535565"/>
<path fill-rule="evenodd" clip-rule="evenodd" d="M159.115 203.644H112.111C110.181 203.644 108.617 202.007 108.617 199.987V151.658C108.617 149.638 110.181 148 112.111 148H159.115C161.044 148 162.609 149.638 162.609 151.658V199.987C162.609 202.007 161.044 203.644 159.115 203.644Z" fill="#E5E5E5"/>
<path fill-rule="evenodd" clip-rule="evenodd" d="M157.864 99.3231H113.362C112.284 99.3231 111.41 98.4497 111.41 97.3714C111.41 96.2932 112.284 95.419 113.362 95.419H157.864C158.942 95.419 159.817 96.2932 159.817 97.3714C159.817 98.4497 158.942 99.3231 157.864 99.3231Z" fill="white"/>
<path fill-rule="evenodd" clip-rule="evenodd" d="M148.233 108.377H122.993C121.915 108.377 121.041 107.504 121.041 106.425C121.041 105.347 121.915 104.473 122.993 104.473H148.233C149.311 104.473 150.185 105.347 150.185 106.425C150.185 107.504 149.311 108.377 148.233 108.377Z" fill="white"/>
<path fill-rule="evenodd" clip-rule="evenodd" d="M162.479 207.43H108.747C106.745 207.43 105.122 205.748 105.122 203.673V154.86C105.122 152.786 106.745 151.104 108.747 151.104H162.479C164.481 151.104 166.104 152.786 166.104 154.86V203.673C166.104 205.748 164.481 207.43 162.479 207.43Z" fill="#EEEEEE"/>
<path fill-rule="evenodd" clip-rule="evenodd" d="M165.638 210.215H105.589C103.532 210.215 101.865 208.548 101.865 206.491V157.614C101.865 155.557 103.532 153.889 105.589 153.889H165.638C167.695 153.889 169.362 155.557 169.362 157.614V206.491C169.362 208.548 167.695 210.215 165.638 210.215Z" fill="white"/>
<path fill-rule="evenodd" clip-rule="evenodd" d="M114.707 173.82C110.571 173.82 107.218 170.468 107.218 166.331C107.218 162.195 110.571 158.841 114.707 158.841C118.842 158.841 122.196 162.195 122.196 166.331C122.196 170.468 118.842 173.82 114.707 173.82Z" fill="#EFEFEF"/>
<path fill-rule="evenodd" clip-rule="evenodd" d="M156.579 164.567H127.798C127.113 164.567 126.56 164.014 126.56 163.329C126.56 162.645 127.113 162.092 127.798 162.092H156.579C157.263 162.092 157.816 162.645 157.816 163.329C157.816 164.014 157.263 164.567 156.579 164.567Z" fill="#EFEFEF"/>
<path fill-rule="evenodd" clip-rule="evenodd" d="M101.865 179.107H169.361V178.925H101.865V179.107Z" fill="#E2E2E2"/>
<path fill-rule="evenodd" clip-rule="evenodd" d="M161.714 203.484H110.726C109.344 203.484 108.224 202.363 108.224 200.981V195.275C108.224 193.892 109.344 192.772 110.726 192.772H161.714C163.097 192.772 164.217 193.892 164.217 195.275V200.981C164.217 202.363 163.097 203.484 161.714 203.484Z" fill="#7E57C2"/>
</g>
<path d="M129.686 197.781H130.353C130.318 198.1 130.227 198.386 130.079 198.638C129.931 198.89 129.721 199.09 129.451 199.238C129.18 199.384 128.842 199.457 128.437 199.457C128.141 199.457 127.872 199.401 127.629 199.29C127.388 199.179 127.181 199.022 127.008 198.818C126.834 198.612 126.7 198.366 126.605 198.079C126.513 197.79 126.467 197.469 126.467 197.115V196.612C126.467 196.258 126.513 195.937 126.605 195.651C126.7 195.361 126.836 195.114 127.011 194.908C127.19 194.702 127.403 194.544 127.653 194.433C127.903 194.322 128.184 194.266 128.496 194.266C128.878 194.266 129.201 194.338 129.464 194.481C129.728 194.625 129.933 194.824 130.079 195.078C130.227 195.33 130.318 195.623 130.353 195.956H129.686C129.654 195.72 129.594 195.518 129.506 195.349C129.418 195.178 129.293 195.046 129.131 194.953C128.969 194.861 128.758 194.814 128.496 194.814C128.272 194.814 128.074 194.857 127.903 194.943C127.734 195.028 127.592 195.15 127.476 195.307C127.363 195.464 127.277 195.653 127.22 195.873C127.162 196.092 127.133 196.336 127.133 196.605V197.115C127.133 197.362 127.158 197.595 127.209 197.812C127.262 198.03 127.342 198.22 127.449 198.385C127.555 198.549 127.69 198.678 127.855 198.773C128.019 198.866 128.213 198.912 128.437 198.912C128.722 198.912 128.949 198.867 129.117 198.777C129.286 198.686 129.414 198.557 129.499 198.388C129.587 198.219 129.649 198.017 129.686 197.781ZM130.998 197.552V197.472C130.998 197.201 131.037 196.95 131.116 196.719C131.195 196.486 131.308 196.283 131.456 196.112C131.604 195.939 131.783 195.804 131.994 195.71C132.204 195.612 132.44 195.564 132.702 195.564C132.965 195.564 133.202 195.612 133.413 195.71C133.626 195.804 133.806 195.939 133.954 196.112C134.104 196.283 134.219 196.486 134.298 196.719C134.376 196.95 134.416 197.201 134.416 197.472V197.552C134.416 197.822 134.376 198.073 134.298 198.305C134.219 198.536 134.104 198.738 133.954 198.912C133.806 199.083 133.627 199.217 133.416 199.314C133.208 199.409 132.972 199.457 132.708 199.457C132.445 199.457 132.208 199.409 131.997 199.314C131.787 199.217 131.606 199.083 131.456 198.912C131.308 198.738 131.195 198.536 131.116 198.305C131.037 198.073 130.998 197.822 130.998 197.552ZM131.64 197.472V197.552C131.64 197.739 131.662 197.916 131.706 198.083C131.75 198.247 131.816 198.393 131.904 198.52C131.994 198.647 132.106 198.748 132.24 198.822C132.374 198.893 132.53 198.929 132.708 198.929C132.884 198.929 133.038 198.893 133.17 198.822C133.304 198.748 133.415 198.647 133.503 198.52C133.591 198.393 133.657 198.247 133.701 198.083C133.747 197.916 133.77 197.739 133.77 197.552V197.472C133.77 197.287 133.747 197.112 133.701 196.948C133.657 196.782 133.59 196.635 133.5 196.508C133.412 196.378 133.301 196.276 133.166 196.202C133.035 196.128 132.88 196.091 132.702 196.091C132.526 196.091 132.371 196.128 132.237 196.202C132.105 196.276 131.994 196.378 131.904 196.508C131.816 196.635 131.75 196.782 131.706 196.948C131.662 197.112 131.64 197.287 131.64 197.472ZM135.862 196.435V199.387H135.22V195.633H135.828L135.862 196.435ZM135.71 197.368L135.443 197.358C135.445 197.101 135.483 196.864 135.557 196.646C135.631 196.427 135.735 196.236 135.869 196.074C136.003 195.912 136.163 195.787 136.348 195.699C136.535 195.609 136.742 195.564 136.969 195.564C137.154 195.564 137.321 195.589 137.469 195.64C137.617 195.689 137.743 195.767 137.847 195.876C137.953 195.985 138.034 196.126 138.09 196.299C138.145 196.471 138.173 196.68 138.173 196.927V199.387H137.528V196.92C137.528 196.724 137.499 196.566 137.441 196.449C137.383 196.328 137.299 196.242 137.188 196.188C137.077 196.133 136.94 196.105 136.778 196.105C136.619 196.105 136.473 196.139 136.341 196.206C136.212 196.273 136.099 196.365 136.005 196.483C135.912 196.601 135.839 196.737 135.786 196.889C135.735 197.04 135.71 197.199 135.71 197.368ZM140.106 199.387H139.464V195.238C139.464 194.967 139.512 194.739 139.609 194.554C139.709 194.367 139.851 194.226 140.036 194.131C140.221 194.034 140.441 193.985 140.695 193.985C140.769 193.985 140.843 193.99 140.918 193.999C140.994 194.008 141.068 194.022 141.14 194.041L141.105 194.565C141.056 194.553 141.001 194.545 140.938 194.54C140.878 194.536 140.818 194.533 140.758 194.533C140.621 194.533 140.503 194.561 140.404 194.617C140.307 194.67 140.233 194.748 140.182 194.853C140.131 194.957 140.106 195.085 140.106 195.238V199.387ZM140.904 195.633V196.126H138.87V195.633H140.904ZM142.311 195.633V199.387H141.666V195.633H142.311ZM141.618 194.637C141.618 194.533 141.649 194.445 141.711 194.374C141.776 194.302 141.871 194.266 141.996 194.266C142.118 194.266 142.212 194.302 142.277 194.374C142.344 194.445 142.377 194.533 142.377 194.637C142.377 194.737 142.344 194.822 142.277 194.894C142.212 194.964 142.118 194.998 141.996 194.998C141.871 194.998 141.776 194.964 141.711 194.894C141.649 194.822 141.618 194.737 141.618 194.637ZM143.984 196.223V199.387H143.342V195.633H143.966L143.984 196.223ZM145.157 195.612L145.153 196.209C145.1 196.198 145.049 196.191 145 196.188C144.954 196.184 144.901 196.181 144.841 196.181C144.693 196.181 144.562 196.205 144.449 196.251C144.335 196.297 144.239 196.362 144.161 196.445C144.082 196.528 144.02 196.628 143.973 196.743C143.929 196.857 143.901 196.982 143.887 197.118L143.706 197.222C143.706 196.996 143.728 196.783 143.772 196.584C143.818 196.385 143.889 196.209 143.984 196.056C144.079 195.901 144.199 195.781 144.345 195.696C144.493 195.608 144.668 195.564 144.872 195.564C144.918 195.564 144.971 195.57 145.032 195.581C145.092 195.59 145.133 195.601 145.157 195.612ZM127.178 204.379V207.387H126.533V203.633H127.143L127.178 204.379ZM127.046 205.368L126.748 205.358C126.75 205.101 126.784 204.864 126.848 204.646C126.913 204.427 127.009 204.236 127.136 204.074C127.264 203.912 127.422 203.787 127.612 203.699C127.801 203.609 128.021 203.564 128.271 203.564C128.447 203.564 128.609 203.589 128.757 203.64C128.905 203.689 129.033 203.766 129.142 203.873C129.25 203.979 129.335 204.115 129.395 204.282C129.455 204.449 129.485 204.65 129.485 204.886V207.387H128.843V204.917C128.843 204.72 128.81 204.563 128.743 204.445C128.678 204.327 128.585 204.242 128.465 204.188C128.345 204.133 128.204 204.105 128.042 204.105C127.852 204.105 127.694 204.139 127.567 204.206C127.439 204.273 127.338 204.365 127.261 204.483C127.185 204.601 127.129 204.737 127.095 204.889C127.062 205.04 127.046 205.199 127.046 205.368ZM129.478 205.014L129.048 205.146C129.05 204.94 129.084 204.742 129.149 204.553C129.216 204.363 129.312 204.194 129.437 204.046C129.564 203.898 129.72 203.781 129.905 203.696C130.09 203.608 130.302 203.564 130.54 203.564C130.741 203.564 130.919 203.59 131.074 203.644C131.232 203.697 131.363 203.779 131.47 203.89C131.579 203.999 131.661 204.139 131.716 204.31C131.772 204.481 131.799 204.684 131.799 204.92V207.387H131.154V204.913C131.154 204.703 131.121 204.54 131.053 204.424C130.989 204.306 130.896 204.224 130.776 204.178C130.658 204.129 130.517 204.105 130.353 204.105C130.212 204.105 130.087 204.129 129.978 204.178C129.869 204.226 129.778 204.294 129.704 204.379C129.63 204.462 129.573 204.558 129.534 204.667C129.497 204.776 129.478 204.891 129.478 205.014Z" fill="white"/>
<path fill-rule="evenodd" clip-rule="evenodd" d="M130.272 169.386C130.35 169.307 130.378 169.191 130.344 169.083C130.31 168.975 130.222 168.899 130.116 168.883L129.176 168.74C129.157 168.737 129.141 168.725 129.133 168.707L128.713 167.82C128.665 167.718 128.568 167.655 128.458 167.655C128.35 167.655 128.253 167.718 128.205 167.82L127.784 168.707C127.777 168.725 127.76 168.737 127.742 168.74L126.802 168.883C126.695 168.899 126.607 168.976 126.573 169.083C126.54 169.192 126.568 169.308 126.645 169.386L127.325 170.078C127.339 170.092 127.345 170.111 127.342 170.13L127.181 171.107C127.162 171.218 127.206 171.329 127.293 171.396C127.381 171.463 127.496 171.471 127.591 171.418L128.433 170.958C128.449 170.948 128.469 170.948 128.485 170.958L129.325 171.418C129.367 171.442 129.413 171.452 129.457 171.452C129.516 171.452 129.574 171.434 129.623 171.396C129.712 171.329 129.754 171.218 129.737 171.107L129.576 170.13C129.573 170.111 129.579 170.092 129.592 170.077L130.272 169.386Z" fill="#FFD400"/>
<path fill-rule="evenodd" clip-rule="evenodd" d="M134.775 169.386C134.853 169.307 134.881 169.191 134.847 169.083C134.813 168.975 134.725 168.899 134.619 168.883L133.679 168.74C133.66 168.737 133.644 168.725 133.636 168.707L133.216 167.82C133.168 167.718 133.071 167.655 132.961 167.655C132.853 167.655 132.756 167.718 132.708 167.82L132.287 168.707C132.279 168.725 132.263 168.737 132.245 168.74L131.305 168.883C131.198 168.899 131.11 168.976 131.076 169.083C131.043 169.192 131.071 169.308 131.148 169.386L131.828 170.078C131.842 170.092 131.848 170.111 131.845 170.13L131.684 171.107C131.665 171.218 131.709 171.329 131.796 171.396C131.884 171.463 131.999 171.471 132.094 171.418L132.936 170.958C132.952 170.948 132.972 170.948 132.988 170.958L133.828 171.418C133.87 171.442 133.916 171.452 133.96 171.452C134.019 171.452 134.077 171.434 134.126 171.396C134.215 171.329 134.257 171.218 134.24 171.107L134.079 170.13C134.076 170.111 134.082 170.092 134.095 170.077L134.775 169.386Z" fill="#FFD400"/>
<path fill-rule="evenodd" clip-rule="evenodd" d="M139.615 169.386C139.694 169.307 139.721 169.191 139.687 169.083C139.654 168.975 139.565 168.899 139.459 168.883L138.519 168.74C138.501 168.737 138.485 168.725 138.477 168.707L138.056 167.82C138.008 167.718 137.911 167.655 137.802 167.655C137.693 167.655 137.596 167.718 137.549 167.82L137.128 168.707C137.12 168.725 137.103 168.737 137.086 168.74L136.146 168.883C136.038 168.899 135.951 168.976 135.917 169.083C135.883 169.192 135.911 169.308 135.988 169.386L136.669 170.078C136.682 170.092 136.688 170.111 136.686 170.13L136.524 171.107C136.506 171.218 136.55 171.329 136.637 171.396C136.724 171.463 136.839 171.471 136.935 171.418L137.776 170.958C137.792 170.948 137.812 170.948 137.828 170.958L138.669 171.418C138.71 171.442 138.756 171.452 138.8 171.452C138.86 171.452 138.918 171.434 138.967 171.396C139.055 171.329 139.098 171.218 139.08 171.107L138.919 170.13C138.916 170.111 138.923 170.092 138.935 170.077L139.615 169.386Z" fill="#FFD400"/>
<path fill-rule="evenodd" clip-rule="evenodd" d="M144.118 169.386C144.196 169.307 144.223 169.191 144.19 169.083C144.157 168.975 144.068 168.899 143.961 168.883L143.022 168.74C143.003 168.737 142.988 168.725 142.979 168.707L142.559 167.82C142.51 167.718 142.413 167.655 142.305 167.655C142.195 167.655 142.098 167.718 142.051 167.82L141.631 168.707C141.623 168.725 141.607 168.737 141.588 168.74L140.649 168.883C140.541 168.899 140.453 168.976 140.419 169.083C140.386 169.192 140.414 169.308 140.491 169.386L141.171 170.078C141.185 170.092 141.19 170.111 141.188 170.13L141.026 171.107C141.009 171.218 141.052 171.329 141.14 171.396C141.227 171.463 141.342 171.471 141.438 171.418L142.278 170.958C142.294 170.948 142.314 170.948 142.33 170.958L143.171 171.418C143.213 171.442 143.258 171.452 143.303 171.452C143.362 171.452 143.42 171.434 143.47 171.396C143.558 171.329 143.601 171.218 143.582 171.107L143.422 170.13C143.419 170.111 143.425 170.092 143.438 170.077L144.118 169.386Z" fill="#FFD400"/>
<path fill-rule="evenodd" clip-rule="evenodd" d="M148.756 169.386C148.834 169.307 148.861 169.191 148.828 169.083C148.794 168.975 148.706 168.899 148.599 168.883L147.659 168.74C147.641 168.737 147.626 168.725 147.617 168.707L147.197 167.82C147.148 167.718 147.051 167.655 146.943 167.655C146.833 167.655 146.736 167.718 146.689 167.82L146.268 168.707C146.261 168.725 146.244 168.737 146.226 168.74L145.287 168.883C145.179 168.899 145.091 168.976 145.057 169.083C145.024 169.192 145.051 169.308 145.129 169.386L145.809 170.078C145.823 170.092 145.828 170.111 145.826 170.13L145.664 171.107C145.647 171.218 145.69 171.329 145.778 171.396C145.865 171.463 145.979 171.471 146.076 171.418L146.916 170.958C146.932 170.948 146.952 170.948 146.968 170.958L147.809 171.418C147.851 171.442 147.896 171.452 147.941 171.452C148 171.452 148.058 171.434 148.108 171.396C148.195 171.329 148.239 171.218 148.22 171.107L148.06 170.13C148.057 170.111 148.063 170.092 148.076 170.077L148.756 169.386Z" fill="#FFD400"/>
</svg>
