<svg width="24" height="25" viewBox="0 0 24 25" fill="none" xmlns="http://www.w3.org/2000/svg">
<path d="M20.0738 22.562C20.0738 18.6638 16.3834 15.5109 11.8398 15.5109C7.29618 15.5109 3.60571 18.6638 3.60571 22.562M11.8398 12.489C13.1109 12.489 14.33 11.9584 15.2288 11.0139C16.1276 10.0693 16.6326 8.78827 16.6326 7.45251C16.6326 6.11675 16.1276 4.8357 15.2288 3.89117C14.33 2.94664 13.1109 2.41602 11.8398 2.41602C10.5686 2.41602 9.34957 2.94664 8.45074 3.89117C7.55191 4.8357 7.04696 6.11675 7.04696 7.45251C7.04696 8.78827 7.55191 10.0693 8.45074 11.0139C9.34957 11.9584 10.5686 12.489 11.8398 12.489Z" stroke="black" stroke-width="1.5" stroke-linecap="round" stroke-linejoin="round"/>
</svg>
