<svg width="364" height="61" viewBox="0 0 364 61" fill="none" xmlns="http://www.w3.org/2000/svg">
<path d="M20 29.5C20 34.7467 15.7467 39 10.5 39C5.25329 39 1 34.7467 1 29.5C1 24.2533 5.25329 20 10.5 20C15.7467 20 20 24.2533 20 29.5Z" fill="white" stroke="#6659B3" stroke-width="2"/>
<path fill-rule="evenodd" clip-rule="evenodd" d="M10.25 34.5C13.1495 34.5 15.5 32.1495 15.5 29.25C15.5 26.3505 13.1495 24 10.25 24C7.35051 24 5 26.3505 5 29.25C5 32.1495 7.35051 34.5 10.25 34.5Z" fill="#7E57C2"/>
<path d="M14 28.1091C21.5461 35.749 47.6949 47.1807 91.8189 49.0358C139.218 51.0286 172.301 37.8176 200.058 28.1091C215.727 22.6285 249.761 7.1814 269.387 3.69466C311.053 -3.70728 336.595 5.18931 352.866 17.6458C366.307 30.6001 366.449 40.2663 352.866 49.0355C335.887 59.9971 308.282 58.0035 305.452 59" stroke="url(#paint0_linear_1_526)" stroke-width="2" stroke-linecap="round" stroke-linejoin="round" stroke-dasharray="4 4"/>
<path d="M302 59.1387H300.736" stroke="#37334A" stroke-width="2" stroke-linecap="round" stroke-linejoin="round"/>
<path d="M298.179 59.1387H282.545C268.533 59.1387 265 58.3962 265 54.5435C265 50.8679 268.435 50.6905 282.764 50.6905C292.382 50.6905 296.896 50.4281 296.896 46.6628C296.896 42.1286 288.328 42.5711 280.306 42.6987" stroke="#37334A" stroke-width="2" stroke-linecap="round" stroke-linejoin="round" stroke-dasharray="6.06 6.06"/>
<path d="M279.026 42.7168C278.6 42.7209 278.177 42.7236 277.759 42.7236" stroke="#37334A" stroke-width="2" stroke-linecap="round" stroke-linejoin="round"/>
<path fill-rule="evenodd" clip-rule="evenodd" d="M278.369 26.1884C280.76 26.1884 282.64 24.5452 282.64 22.4544C282.64 20.3639 280.76 18.7207 278.369 18.7207C275.978 18.7207 274.099 20.3639 274.099 22.4544C274.099 24.5452 275.978 26.1884 278.369 26.1884ZM278.369 12C284.945 12 290.326 16.7043 290.326 22.4547C290.326 30.2959 278.369 41.8711 278.369 41.8711C278.369 41.8711 266.411 30.2959 266.411 22.4547C266.411 16.7043 271.792 12 278.369 12Z" fill="#F6BD75"/>
<path d="M278.369 41.8711L279.064 42.5896C278.676 42.965 278.061 42.965 277.673 42.5896L278.369 41.8711ZM278.369 25.1884C280.338 25.1884 281.64 23.8711 281.64 22.4544H283.64C283.64 25.2194 281.182 27.1884 278.369 27.1884V25.1884ZM281.64 22.4544C281.64 21.0381 280.338 19.7207 278.369 19.7207V17.7207C281.182 17.7207 283.64 19.6896 283.64 22.4544H281.64ZM278.369 19.7207C276.4 19.7207 275.099 21.0381 275.099 22.4544H273.099C273.099 19.6896 275.556 17.7207 278.369 17.7207V19.7207ZM275.099 22.4544C275.099 23.8711 276.4 25.1884 278.369 25.1884V27.1884C275.556 27.1884 273.099 25.2194 273.099 22.4544H275.099ZM278.369 11C285.367 11 291.326 16.0301 291.326 22.4547H289.326C289.326 17.3786 284.524 13 278.369 13V11ZM291.326 22.4547C291.326 24.6462 290.498 27.0068 289.348 29.2525C288.189 31.5145 286.655 33.75 285.139 35.7143C283.621 37.6819 282.105 39.3974 280.97 40.6203C280.402 41.2323 279.928 41.7223 279.595 42.0603C279.428 42.2293 279.297 42.3605 279.206 42.4499C279.161 42.4946 279.126 42.529 279.102 42.5524C279.09 42.5641 279.081 42.5731 279.075 42.5793C279.071 42.5825 279.069 42.5849 279.067 42.5866C279.066 42.5874 279.066 42.5881 279.065 42.5886C279.065 42.5889 279.065 42.5891 279.064 42.5893C279.064 42.5895 279.064 42.5896 278.369 41.8711C277.673 41.1526 277.673 41.1527 277.673 41.1527C277.673 41.1527 277.673 41.1527 277.673 41.1526C277.673 41.1524 277.674 41.152 277.674 41.1514C277.675 41.1504 277.677 41.1486 277.68 41.1461C277.685 41.1411 277.693 41.1334 277.703 41.123C277.725 41.1021 277.757 41.0705 277.799 41.0285C277.884 40.9446 278.01 40.8194 278.17 40.6566C278.491 40.3309 278.951 39.8554 279.504 39.2597C280.611 38.0671 282.084 36.3988 283.556 34.4924C285.029 32.5828 286.485 30.4543 287.568 28.3405C288.659 26.2106 289.326 24.1838 289.326 22.4547H291.326ZM278.369 41.8711C277.673 42.5896 277.673 42.5895 277.673 42.5893C277.672 42.5891 277.672 42.5889 277.672 42.5886C277.671 42.5881 277.671 42.5874 277.67 42.5866C277.668 42.5849 277.666 42.5825 277.662 42.5793C277.656 42.5731 277.647 42.5641 277.635 42.5524C277.611 42.529 277.576 42.4946 277.531 42.4499C277.44 42.3605 277.309 42.2293 277.142 42.0603C276.809 41.7223 276.335 41.2323 275.767 40.6203C274.632 39.3974 273.116 37.6819 271.598 35.7143C270.082 33.75 268.548 31.5145 267.389 29.2525C266.239 27.0068 265.411 24.6462 265.411 22.4547H267.411C267.411 24.1838 268.078 26.2106 269.169 28.3405C270.252 30.4543 271.708 32.5828 273.182 34.4924C274.653 36.3988 276.126 38.0671 277.233 39.2597C277.786 39.8554 278.246 40.3309 278.567 40.6566C278.727 40.8194 278.853 40.9446 278.938 41.0285C278.98 41.0705 279.012 41.1021 279.034 41.123C279.044 41.1334 279.052 41.1411 279.057 41.1461C279.06 41.1486 279.062 41.1504 279.063 41.1514C279.063 41.152 279.064 41.1524 279.064 41.1526C279.064 41.1527 279.064 41.1527 279.064 41.1527C279.064 41.1527 279.064 41.1526 278.369 41.8711ZM265.411 22.4547C265.411 16.0301 271.37 11 278.369 11V13C272.213 13 267.411 17.3786 267.411 22.4547H265.411Z" fill="#37334A"/>
<path d="M278.369 41.8711L279.064 42.5896C278.676 42.965 278.061 42.965 277.673 42.5896L278.369 41.8711ZM278.369 25.1884C280.338 25.1884 281.64 23.8711 281.64 22.4544H283.64C283.64 25.2194 281.182 27.1884 278.369 27.1884V25.1884ZM281.64 22.4544C281.64 21.0381 280.338 19.7207 278.369 19.7207V17.7207C281.182 17.7207 283.64 19.6896 283.64 22.4544H281.64ZM278.369 19.7207C276.4 19.7207 275.099 21.0381 275.099 22.4544H273.099C273.099 19.6896 275.556 17.7207 278.369 17.7207V19.7207ZM275.099 22.4544C275.099 23.8711 276.4 25.1884 278.369 25.1884V27.1884C275.556 27.1884 273.099 25.2194 273.099 22.4544H275.099ZM278.369 11C285.367 11 291.326 16.0301 291.326 22.4547H289.326C289.326 17.3786 284.524 13 278.369 13V11ZM291.326 22.4547C291.326 24.6462 290.498 27.0068 289.348 29.2525C288.189 31.5145 286.655 33.75 285.139 35.7143C283.621 37.6819 282.105 39.3974 280.97 40.6203C280.402 41.2323 279.928 41.7223 279.595 42.0603C279.428 42.2293 279.297 42.3605 279.206 42.4499C279.161 42.4946 279.126 42.529 279.102 42.5524C279.09 42.5641 279.081 42.5731 279.075 42.5793C279.071 42.5825 279.069 42.5849 279.067 42.5866C279.066 42.5874 279.066 42.5881 279.065 42.5886C279.065 42.5889 279.065 42.5891 279.064 42.5893C279.064 42.5895 279.064 42.5896 278.369 41.8711C277.673 41.1526 277.673 41.1527 277.673 41.1527C277.673 41.1527 277.673 41.1527 277.673 41.1526C277.673 41.1524 277.674 41.152 277.674 41.1514C277.675 41.1504 277.677 41.1486 277.68 41.1461C277.685 41.1411 277.693 41.1334 277.703 41.123C277.725 41.1021 277.757 41.0705 277.799 41.0285C277.884 40.9446 278.01 40.8194 278.17 40.6566C278.491 40.3309 278.951 39.8554 279.504 39.2597C280.611 38.0671 282.084 36.3988 283.556 34.4924C285.029 32.5828 286.485 30.4543 287.568 28.3405C288.659 26.2106 289.326 24.1838 289.326 22.4547H291.326ZM278.369 41.8711C277.673 42.5896 277.673 42.5895 277.673 42.5893C277.672 42.5891 277.672 42.5889 277.672 42.5886C277.671 42.5881 277.671 42.5874 277.67 42.5866C277.668 42.5849 277.666 42.5825 277.662 42.5793C277.656 42.5731 277.647 42.5641 277.635 42.5524C277.611 42.529 277.576 42.4946 277.531 42.4499C277.44 42.3605 277.309 42.2293 277.142 42.0603C276.809 41.7223 276.335 41.2323 275.767 40.6203C274.632 39.3974 273.116 37.6819 271.598 35.7143C270.082 33.75 268.548 31.5145 267.389 29.2525C266.239 27.0068 265.411 24.6462 265.411 22.4547H267.411C267.411 24.1838 268.078 26.2106 269.169 28.3405C270.252 30.4543 271.708 32.5828 273.182 34.4924C274.653 36.3988 276.126 38.0671 277.233 39.2597C277.786 39.8554 278.246 40.3309 278.567 40.6566C278.727 40.8194 278.853 40.9446 278.938 41.0285C278.98 41.0705 279.012 41.1021 279.034 41.123C279.044 41.1334 279.052 41.1411 279.057 41.1461C279.06 41.1486 279.062 41.1504 279.063 41.1514C279.063 41.152 279.064 41.1524 279.064 41.1526C279.064 41.1527 279.064 41.1527 279.064 41.1527C279.064 41.1527 279.064 41.1526 278.369 41.8711ZM265.411 22.4547C265.411 16.0301 271.37 11 278.369 11V13C272.213 13 267.411 17.3786 267.411 22.4547H265.411Z" fill="#37334A"/>
<defs>
<linearGradient id="paint0_linear_1_526" x1="353.573" y1="14.6571" x2="49.3001" y2="65.1916" gradientUnits="userSpaceOnUse">
<stop/>
<stop offset="1" stop-color="#E7E7E7"/>
</linearGradient>
</defs>
</svg>
