<svg width="20" height="20" viewBox="0 0 20 20" fill="none" xmlns="http://www.w3.org/2000/svg">
<path d="M16.557 8.75C14.6617 8.75195 13.1211 10.3047 13.123 12.2117C13.1238 13.2535 13.643 14.441 14.666 15.7418C15.3961 16.6703 16.1195 17.3156 16.15 17.3426C16.3874 17.5533 16.7447 17.5519 16.9805 17.3418C17.0109 17.3148 17.7332 16.668 18.4617 15.7383C19.2433 14.7405 19.998 13.4677 19.998 12.2051C19.9964 10.3017 18.4674 8.75 16.557 8.75ZM15.623 12.1883C15.6222 11.6705 16.0413 11.2508 16.5594 11.25C17.3934 11.25 17.8109 12.2625 17.2238 12.8496C16.6396 13.4351 15.623 13.0274 15.623 12.1883Z" fill="#1F87FE"/>
<path d="M3.02227 8.59219C3.2591 8.80242 3.61555 8.80277 3.85273 8.59219C3.8832 8.56524 4.60625 7.91914 5.33555 6.99023C6.35703 5.68828 6.875 4.50039 6.875 3.4582C6.875 1.55156 5.33281 0 3.4375 0C1.54219 0 0 1.55156 0 3.4582C0 4.50039 0.517969 5.68828 1.53945 6.99023C2.26875 7.91914 2.9918 8.56524 3.02227 8.59219ZM3.4375 2.5C3.9543 2.5 4.375 2.9207 4.375 3.4375C4.375 3.9543 3.9543 4.375 3.4375 4.375C2.9207 4.375 2.5 3.9543 2.5 3.4375C2.5 2.9207 2.9207 2.5 3.4375 2.5Z" fill="#1F87FE"/>
<path d="M17.5042 19.0617C17.5042 19.918 16.4423 20.3275 15.8687 19.6875H2.81249C1.26171 19.6875 0 18.4258 0 16.875C0 15.3242 1.26171 14.0625 2.81249 14.0625H9.082C9.93277 14.0625 10.625 13.3703 10.625 12.5195C10.625 11.6687 9.93277 10.9766 9.082 10.9766H4.13631C3.94764 11.1848 3.69651 11.2891 3.43749 11.2891C2.6064 11.2891 2.18663 10.2766 2.77382 9.68946C3.15983 9.30258 3.78694 9.33094 4.13592 9.72657H9.082C10.6222 9.72657 11.875 10.9793 11.875 12.5195C11.875 14.0598 10.6222 15.3125 9.082 15.3125H2.81249C1.95077 15.3125 1.24999 16.0133 1.24999 16.875C1.24999 17.7367 1.95077 18.4375 2.81249 18.4375C16.8756 18.4375 15.848 18.4558 15.9035 18.4004C16.4891 17.8134 17.5036 18.2256 17.5042 19.0617Z" fill="#1F87FE"/>
</svg>
