<svg width="23" height="23" viewBox="0 0 23 23" fill="none" xmlns="http://www.w3.org/2000/svg">
<g clip-path="url(#clip0_65_207)">
<path d="M21.4888 10.0173L18.5919 9.01676L16.9138 6.16739C16.352 5.28209 15.9695 4.99316 14.2851 4.99316H1.83777C1.18914 4.99321 0.663086 5.51926 0.663086 6.16743V12.4135V13.5317V14.1472C0.663086 14.7955 1.18914 15.3218 1.83777 15.3218H2.46116C2.53855 14.0322 3.60574 13.0094 4.91461 13.0094C6.22343 13.0094 7.29058 14.0322 7.3681 15.3218H15.8092C15.8558 14.5605 16.2526 13.8309 16.9462 13.3919C18.0944 12.6644 19.6146 13.0051 20.3421 14.1531C20.5728 14.5176 20.6955 14.9195 20.7195 15.3218H21.489C22.1376 15.3218 22.6631 14.7956 22.6631 14.1472V11.192C22.6631 10.5431 22.182 10.2458 21.4888 10.0173ZM17.0809 9.33684H11.7278C11.6474 9.33684 11.5829 9.27238 11.5829 9.19254V6.35C11.5829 6.27016 11.6474 6.20571 11.7278 6.20571H15.5614C15.6407 6.20571 15.759 6.23521 15.8174 6.35L17.225 9.19233C17.225 9.27234 17.1607 9.33684 17.0809 9.33684ZM22.4564 12.9666C22.4564 13.1835 22.2807 13.3592 22.0638 13.3592H20.8533C20.6364 13.3592 20.4607 13.1834 20.4607 12.9666V12.0831C20.4607 11.8663 20.6365 11.6906 20.8533 11.6906H22.0638C22.2807 11.6906 22.4564 11.8663 22.4564 12.0831V12.9666ZM4.8851 13.271C3.65418 13.271 2.65271 14.2727 2.65271 15.5035C2.65271 16.7344 3.65414 17.7354 4.8851 17.7354C6.11594 17.7354 7.11703 16.7344 7.11703 15.5035C7.11703 14.2727 6.11598 13.271 4.8851 13.271ZM4.8851 17.0271C4.04436 17.0271 3.36137 16.3436 3.36137 15.5037C3.36137 14.6638 4.04474 13.9802 4.8851 13.9802C5.72529 13.9802 6.40845 14.6638 6.40845 15.5037C6.40845 16.3436 5.72529 17.0271 4.8851 17.0271ZM18.273 13.271C17.0421 13.271 16.0405 14.2727 16.0405 15.5035C16.0405 16.7344 17.0421 17.7354 18.273 17.7354C19.5038 17.7354 20.5053 16.7344 20.5053 15.5035C20.5053 14.2727 19.5038 13.271 18.273 13.271ZM18.273 17.0271C17.4326 17.0271 16.7493 16.3436 16.7493 15.5037C16.7493 14.6638 17.4329 13.9802 18.273 13.9802C19.1135 13.9802 19.7966 14.6638 19.7966 15.5037C19.7965 16.3436 19.1133 17.0271 18.273 17.0271Z" fill="#E73C3C"/>
</g>
<defs>
<clipPath id="clip0_65_207">
<rect width="22" height="22" fill="white" transform="translate(0.663086 0.364258)"/>
</clipPath>
</defs>
</svg>
